<svg width="48" height="49" viewBox="0 0 48 49" fill="none" xmlns="http://www.w3.org/2000/svg">
<rect y="0.0578613" width="48" height="48" rx="24" fill="#0F172A"/>
<path d="M21.23 34.8079C21.22 34.8079 21.21 34.8079 21.19 34.8079C19.51 34.7979 18.31 33.2879 17.46 31.9779C15.29 28.6479 14.85 24.4579 16.42 22.0279C17.47 20.3979 19.17 19.3879 20.85 19.3879C21.72 19.3879 22.4 19.6279 23 19.8479C23.48 20.0179 23.89 20.1679 24.32 20.1679C24.7 20.1679 25.03 20.0379 25.45 19.8779C26.03 19.6579 26.74 19.3879 27.77 19.3879C29.25 19.3879 30.77 20.1779 31.83 21.5179C31.97 21.6879 32.02 21.9179 31.98 22.1279C31.94 22.3479 31.8 22.5279 31.61 22.6379C30.48 23.2579 29.86 24.3879 29.95 25.6679C30.04 26.9679 30.84 28.0679 32.04 28.5179C32.23 28.5879 32.39 28.7379 32.47 28.9279C32.55 29.1179 32.55 29.3379 32.46 29.5179C32.02 30.4979 31.8 30.9479 31.23 31.8279C30.28 33.2879 29.08 34.7879 27.44 34.8079C26.73 34.8079 26.25 34.5979 25.83 34.3979C25.41 34.2079 25 34.0579 24.35 34.0379C23.65 34.0379 23.28 34.2079 22.85 34.3979C22.41 34.5979 21.93 34.8079 21.23 34.8079ZM20.85 20.8879C19.67 20.8879 18.46 21.6379 17.68 22.8379C16.62 24.4779 16.63 27.9479 18.72 31.1579C19.37 32.1579 20.24 33.2979 21.21 33.3079C21.57 33.2979 21.84 33.1979 22.21 33.0379C22.7 32.8179 23.31 32.5479 24.32 32.5379C25.31 32.5179 25.95 32.8079 26.44 33.0379C26.8 33.2079 27.04 33.3179 27.41 33.3079C28.35 33.2979 29.26 32.0779 29.96 31.0179C30.33 30.4479 30.54 30.0879 30.77 29.5779C29.43 28.7879 28.55 27.3979 28.44 25.7779C28.33 24.2479 28.95 22.8179 30.09 21.8679C29.39 21.2479 28.56 20.8979 27.76 20.8979C27.01 20.8979 26.51 21.0879 25.98 21.2879C25.48 21.4779 24.96 21.6779 24.31 21.6779C23.62 21.6779 23.05 21.4679 22.49 21.2779C21.96 21.0679 21.45 20.8879 20.85 20.8879ZM23.82 19.1879C23.79 19.1879 23.75 19.1879 23.72 19.1879C23.37 19.1779 23.07 18.9179 23.01 18.5679C22.8 17.4379 23.2 16.1379 24.07 15.0779C24.87 14.1079 26.19 13.3879 27.36 13.3079C27.77 13.2879 28.1 13.5579 28.15 13.9479C28.32 15.1179 27.95 16.3979 27.12 17.4679C26.31 18.5179 25.02 19.1879 23.82 19.1879ZM26.65 15.0079C26.11 15.2279 25.58 15.5979 25.23 16.0279C24.9 16.4279 24.59 16.9879 24.49 17.5679C25.03 17.3879 25.57 17.0279 25.94 16.5479C26.14 16.2979 26.52 15.7179 26.65 15.0079Z" fill="white"/>
</svg>
