<svg width="13" height="13" viewBox="0 0 13 13" fill="none" xmlns="http://www.w3.org/2000/svg">
<path fill-rule="evenodd" clip-rule="evenodd" d="M1.5802 2.64575C1.5802 2.23154 1.91599 1.89575 2.3302 1.89575H9.8302C10.2444 1.89575 10.5802 2.23154 10.5802 2.64575V10.1458C10.5802 10.56 10.2444 10.8958 9.8302 10.8958H2.3302C1.91599 10.8958 1.5802 10.56 1.5802 10.1458V2.64575ZM9.8302 2.64575H2.3302V10.1458H9.8302V2.64575Z" fill="#FF7235"/>
<path fill-rule="evenodd" clip-rule="evenodd" d="M8.3302 1.14575C8.53731 1.14575 8.7052 1.31365 8.7052 1.52075V3.02075C8.7052 3.22786 8.53731 3.39575 8.3302 3.39575C8.12309 3.39575 7.9552 3.22786 7.9552 3.02075V1.52075C7.9552 1.31365 8.12309 1.14575 8.3302 1.14575Z" fill="#FF7235"/>
<path fill-rule="evenodd" clip-rule="evenodd" d="M3.8302 1.14575C4.03731 1.14575 4.2052 1.31365 4.2052 1.52075V3.02075C4.2052 3.22786 4.03731 3.39575 3.8302 3.39575C3.62309 3.39575 3.4552 3.22786 3.4552 3.02075V1.52075C3.4552 1.31365 3.62309 1.14575 3.8302 1.14575Z" fill="#FF7235"/>
<path fill-rule="evenodd" clip-rule="evenodd" d="M1.5802 4.52075C1.5802 4.31365 1.74809 4.14575 1.9552 4.14575H10.2052C10.4123 4.14575 10.5802 4.31365 10.5802 4.52075C10.5802 4.72786 10.4123 4.89575 10.2052 4.89575H1.9552C1.74809 4.89575 1.5802 4.72786 1.5802 4.52075Z" fill="#FF7235"/>
</svg>
