<svg width="13" height="13" viewBox="0 0 13 13" fill="none" xmlns="http://www.w3.org/2000/svg">
<path fill-rule="evenodd" clip-rule="evenodd" d="M6.90909 2.01941C4.63091 2.01941 2.78409 3.86623 2.78409 6.14441C2.78409 8.42258 4.63091 10.2694 6.90909 10.2694C9.18726 10.2694 11.0341 8.42258 11.0341 6.14441C11.0341 3.86623 9.18726 2.01941 6.90909 2.01941ZM2.03409 6.14441C2.03409 3.45202 4.2167 1.26941 6.90909 1.26941C9.60148 1.26941 11.7841 3.45202 11.7841 6.14441C11.7841 8.8368 9.60148 11.0194 6.90909 11.0194C4.2167 11.0194 2.03409 8.8368 2.03409 6.14441Z" fill="#FF7235"/>
<path fill-rule="evenodd" clip-rule="evenodd" d="M6.90912 3.14441C7.11623 3.14441 7.28412 3.3123 7.28412 3.51941V5.76941H9.53412C9.74123 5.76941 9.90912 5.9373 9.90912 6.14441C9.90912 6.35152 9.74123 6.51941 9.53412 6.51941H6.90912C6.70201 6.51941 6.53412 6.35152 6.53412 6.14441V3.51941C6.53412 3.3123 6.70201 3.14441 6.90912 3.14441Z" fill="#FF7235"/>
</svg>
