<svg width="28" height="29" viewBox="0 0 28 29" fill="none" xmlns="http://www.w3.org/2000/svg">
<rect y="0.5" width="28" height="28" rx="14" fill="#1B1B1B"/>
<path d="M18.0001 11V16C18.0001 16.276 17.7766 16.5 17.5001 16.5C17.2236 16.5 17.0001 16.276 17.0001 16V12.207L11.3537 17.8535C11.2562 17.951 11.1281 18 11.0001 18C10.8721 18 10.7441 17.951 10.6466 17.8535C10.4511 17.658 10.4511 17.342 10.6466 17.1465L16.2931 11.5H12.5001C12.2236 11.5 12.0001 11.276 12.0001 11C12.0001 10.724 12.2236 10.5 12.5001 10.5H17.5001C17.5651 10.5 17.6302 10.5135 17.6912 10.5385C17.8137 10.589 17.9112 10.6865 17.9617 10.809C17.9872 10.87 18.0001 10.935 18.0001 11Z" fill="#00F335"/>
</svg>
