<svg width="13" height="13" viewBox="0 0 13 13" fill="none" xmlns="http://www.w3.org/2000/svg">
<path fill-rule="evenodd" clip-rule="evenodd" d="M6.98926 0.894409C7.19636 0.894409 7.36426 1.0623 7.36426 1.26941V11.0194C7.36426 11.2265 7.19636 11.3944 6.98926 11.3944C6.78215 11.3944 6.61426 11.2265 6.61426 11.0194V1.26941C6.61426 1.0623 6.78215 0.894409 6.98926 0.894409Z" fill="#FF7235"/>
<path fill-rule="evenodd" clip-rule="evenodd" d="M4.46077 2.67842C4.88272 2.25646 5.45502 2.01941 6.05176 2.01941H7.73926C8.03473 2.01941 8.32731 2.07761 8.6003 2.19068C8.87328 2.30375 9.12132 2.46949 9.33025 2.67842C9.53918 2.88735 9.70492 3.13539 9.81799 3.40837C9.93106 3.68135 9.98926 3.97394 9.98926 4.26941C9.98926 4.47652 9.82137 4.64441 9.61426 4.64441C9.40715 4.64441 9.23926 4.47652 9.23926 4.26941C9.23926 4.07243 9.20046 3.87737 9.12508 3.69538C9.0497 3.5134 8.93921 3.34804 8.79992 3.20875C8.66063 3.06946 8.49527 2.95897 8.31328 2.88359C8.1313 2.80821 7.93624 2.76941 7.73926 2.76941H6.05176C5.65393 2.76941 5.2724 2.92744 4.9911 3.20875C4.70979 3.49005 4.55176 3.87158 4.55176 4.26941C4.55176 4.66723 4.70979 5.04876 4.9911 5.33007C5.2724 5.61137 5.65393 5.76941 6.05176 5.76941H8.11426C8.711 5.76941 9.28329 6.00646 9.70525 6.42842C10.1272 6.85038 10.3643 7.42267 10.3643 8.01941C10.3643 8.61615 10.1272 9.18844 9.70525 9.6104C9.28329 10.0324 8.711 10.2694 8.11426 10.2694H5.86426C5.26752 10.2694 4.69522 10.0324 4.27327 9.6104C3.85131 9.18844 3.61426 8.61615 3.61426 8.01941C3.61426 7.8123 3.78215 7.64441 3.98926 7.64441C4.19636 7.64441 4.36426 7.8123 4.36426 8.01941C4.36426 8.41723 4.52229 8.79876 4.8036 9.08007C5.0849 9.36137 5.46643 9.51941 5.86426 9.51941H8.11426C8.51208 9.51941 8.89361 9.36137 9.17492 9.08007C9.45622 8.79876 9.61426 8.41723 9.61426 8.01941C9.61426 7.62158 9.45622 7.24005 9.17492 6.95875C8.89361 6.67744 8.51208 6.51941 8.11426 6.51941H6.05176C5.45502 6.51941 4.88272 6.28236 4.46077 5.8604C4.03881 5.43844 3.80176 4.86615 3.80176 4.26941C3.80176 3.67267 4.03881 3.10038 4.46077 2.67842Z" fill="#FF7235"/>
</svg>
