<svg width="13" height="15" viewBox="0 0 13 15" fill="none" xmlns="http://www.w3.org/2000/svg">
<path d="M7.72973 2.22554C8.15219 1.70075 8.36343 1.43836 8.58789 1.2853C9.1295 0.915993 9.7964 0.904509 10.347 1.25501C10.5753 1.40027 10.793 1.65528 11.2284 2.1653C11.6639 2.67531 11.8816 2.93032 12.0057 3.1976C12.3049 3.84253 12.2951 4.62361 11.9798 5.25796C11.8491 5.52085 11.6251 5.76825 11.177 6.26306L5.84577 12.1503C4.99665 13.088 4.57209 13.5568 4.04147 13.7944C3.51086 14.032 2.92753 14.0146 1.76088 13.9796L1.60215 13.9748C1.24698 13.9642 1.0694 13.9588 0.966169 13.8245C0.86294 13.6902 0.877034 13.4828 0.90522 13.068L0.920525 12.8428C0.999857 11.6753 1.03952 11.0916 1.23836 10.5668C1.43721 10.0421 1.7802 9.61605 2.46618 8.76393L7.72973 2.22554Z" fill="white" fill-opacity="0.82" stroke="black" stroke-width="0.793103" stroke-linejoin="round"/>
<path d="M7.12054 2.30029L11.0891 6.85029" stroke="black" stroke-width="0.793103" stroke-linejoin="round"/>
</svg>
