<svg width="20" height="18" viewBox="0 0 20 18" fill="none" xmlns="http://www.w3.org/2000/svg">
<path d="M14.1666 14.3588H10.8333L7.12495 16.8254C6.57495 17.1921 5.83329 16.8004 5.83329 16.1338V14.3588C3.33329 14.3588 1.66663 12.6921 1.66663 10.1921V5.19206C1.66663 2.69206 3.33329 1.02539 5.83329 1.02539H14.1666C16.6666 1.02539 18.3333 2.69206 18.3333 5.19206V10.1921C18.3333 12.6921 16.6666 14.3588 14.1666 14.3588Z" stroke="#292D32" stroke-width="1.5" stroke-miterlimit="10" stroke-linecap="round" stroke-linejoin="round"/>
<path d="M10 8.4668V8.29183C10 7.72516 10.35 7.42515 10.7 7.18348C11.0417 6.95015 11.3833 6.65016 11.3833 6.10016C11.3833 5.33349 10.7667 4.7168 10 4.7168C9.23334 4.7168 8.6167 5.33349 8.6167 6.10016" stroke="#292D32" stroke-width="1.5" stroke-linecap="round" stroke-linejoin="round"/>
</svg>
