<svg width="28" height="29" viewBox="0 0 28 29" fill="none" xmlns="http://www.w3.org/2000/svg">
<rect y="0.5" width="28" height="28" rx="14" fill="#1B1B1B"/>
<path d="M17.3535 11.8535L11.707 17.5H15.5C15.7765 17.5 16 17.724 16 18C16 18.276 15.7765 18.5 15.5 18.5H10.5C10.435 18.5 10.37 18.4866 10.309 18.4616C10.1865 18.4111 10.0895 18.3136 10.0385 18.1911C10.013 18.1301 10 18.065 10 18V13C10 12.724 10.2235 12.5 10.5 12.5C10.7765 12.5 11 12.724 11 13V16.793L16.6465 11.1465C16.842 10.951 17.158 10.951 17.3535 11.1465C17.549 11.342 17.549 11.658 17.3535 11.8535Z" fill="#FC2323"/>
</svg>
