<svg width="24" height="25" viewBox="0 0 24 25" fill="none" xmlns="http://www.w3.org/2000/svg">
<path d="M12 22.4117C17.5228 22.4117 22 17.9346 22 12.4117C22 6.8889 17.5228 2.41174 12 2.41174C6.47715 2.41174 2 6.8889 2 12.4117C2 17.9346 6.47715 22.4117 12 22.4117Z" stroke="black" stroke-width="1.5"/>
<path d="M12 6.41174V18.4117" stroke="black" stroke-width="1.5" stroke-linecap="round"/>
<path d="M15 9.91174C15 8.53103 13.6569 7.41174 12 7.41174C10.3431 7.41174 9 8.53103 9 9.91174C9 11.2924 10.3431 12.4117 12 12.4117C13.6569 12.4117 15 13.531 15 14.9117C15 16.2924 13.6569 17.4117 12 17.4117C10.3431 17.4117 9 16.2924 9 14.9117" stroke="black" stroke-width="1.5" stroke-linecap="round"/>
</svg>
