<svg width="16" height="18" viewBox="0 0 16 18" fill="none" xmlns="http://www.w3.org/2000/svg">
<path d="M8.00004 11.0833V12.75M3.83337 7.35733C4.22622 7.33333 4.71053 7.33333 5.33337 7.33333H10.6667C11.2895 7.33333 11.7739 7.33333 12.1667 7.35733M3.83337 7.35733C3.34311 7.38725 2.99528 7.45458 2.6984 7.60583C2.22799 7.8455 1.84554 8.22792 1.60586 8.69833C1.33337 9.23317 1.33337 9.93317 1.33337 11.3333V12.5C1.33337 13.9002 1.33337 14.6002 1.60586 15.135C1.84554 15.6054 2.22799 15.9878 2.6984 16.2275C3.23317 16.5 3.93324 16.5 5.33337 16.5H10.6667C12.0669 16.5 12.7669 16.5 13.3017 16.2275C13.7721 15.9878 14.1545 15.6054 14.3942 15.135C14.6667 14.6002 14.6667 13.9002 14.6667 12.5V11.3333C14.6667 9.93317 14.6667 9.23317 14.3942 8.69833C14.1545 8.22792 13.7721 7.8455 13.3017 7.60583C13.0048 7.45458 12.657 7.38725 12.1667 7.35733M3.83337 7.35733V5.66667C3.83337 3.36548 5.69886 1.5 8.00004 1.5C10.3012 1.5 12.1667 3.36548 12.1667 5.66667V7.35733" stroke="black" stroke-width="1.5" stroke-linecap="round" stroke-linejoin="round"/>
</svg>
