<svg width="26" height="26" viewBox="0 0 26 26" fill="none" xmlns="http://www.w3.org/2000/svg">
<path fill-rule="evenodd" clip-rule="evenodd" d="M24.3529 14.7273C25.3086 14.7273 25.9447 15.4896 25.7407 16.4254C25.7407 16.4254 25.8827 15.916 25.7238 16.4879C24.1996 21.9738 19.1685 26 13.197 26C6.01732 26 0.197021 20.1797 0.197021 13C0.197021 5.8203 6.01732 0 13.197 0C19.179 0 24.2173 4.0404 25.7318 9.54108C25.8868 10.1041 25.741 9.57475 25.741 9.57475C25.93 10.5127 25.3072 11.2731 24.3529 11.2731L13.4861 11.2731C13.2467 11.2731 13.1896 11.1365 13.3606 10.9662C13.3606 10.9662 14.7658 9.5653 15.2765 9.06226C16.9269 7.41793 14.4756 4.97537 12.8415 6.6036L7.57439 11.8947C6.98483 12.4878 6.98192 13.4529 7.56824 14.05L12.8415 19.3964C14.4756 21.0246 16.9269 18.5821 15.2928 16.9538C14.7673 16.4364 13.3611 15.0347 13.3611 15.0347C13.1907 14.865 13.2469 14.7273 13.4861 14.7273L24.3529 14.7273Z" fill="#FF7235"/>
</svg>
