<svg width="13" height="13" viewBox="0 0 13 13" fill="none" xmlns="http://www.w3.org/2000/svg">
<path fill-rule="evenodd" clip-rule="evenodd" d="M2.99866 11.0193C2.99866 10.8122 3.16655 10.6443 3.37366 10.6443H10.1237C10.3308 10.6443 10.4987 10.8122 10.4987 11.0193C10.4987 11.2264 10.3308 11.3943 10.1237 11.3943H3.37366C3.16655 11.3943 2.99866 11.2264 2.99866 11.0193Z" fill="#FF7235"/>
<path fill-rule="evenodd" clip-rule="evenodd" d="M6.74866 3.89429C6.12734 3.89429 5.62366 4.39797 5.62366 5.01929C5.62366 5.64061 6.12734 6.14429 6.74866 6.14429C7.36998 6.14429 7.87366 5.64061 7.87366 5.01929C7.87366 4.39797 7.36998 3.89429 6.74866 3.89429ZM4.87366 5.01929C4.87366 3.98375 5.71312 3.14429 6.74866 3.14429C7.78419 3.14429 8.62366 3.98375 8.62366 5.01929C8.62366 6.05482 7.78419 6.89429 6.74866 6.89429C5.71312 6.89429 4.87366 6.05482 4.87366 5.01929Z" fill="#FF7235"/>
<path fill-rule="evenodd" clip-rule="evenodd" d="M6.74866 1.64429C5.85355 1.64429 4.99511 1.99987 4.36217 2.6328C3.72924 3.26574 3.37366 4.12418 3.37366 5.01929C3.37366 6.57177 4.2406 7.98541 5.15663 9.03885C5.61007 9.5603 6.06447 9.98072 6.40559 10.2707C6.54049 10.3853 6.65725 10.4792 6.74866 10.5505C6.84007 10.4792 6.95682 10.3853 7.09173 10.2707C7.43284 9.98072 7.88724 9.5603 8.34068 9.03885C9.25671 7.98541 10.1237 6.57177 10.1237 5.01929C10.1237 4.12418 9.76808 3.26574 9.13514 2.6328C8.50221 1.99987 7.64376 1.64429 6.74866 1.64429ZM6.74866 11.0193C6.53361 11.3265 6.5335 11.3264 6.53338 11.3263L6.53307 11.3261L6.5322 11.3255L6.52943 11.3236L6.51989 11.3168C6.51179 11.311 6.50023 11.3027 6.48544 11.2919C6.45587 11.2703 6.41338 11.2388 6.35981 11.1978C6.25271 11.116 6.10112 10.9962 5.91985 10.8421C5.55785 10.5344 5.07474 10.0877 4.59068 9.53098C3.63171 8.42817 2.62366 6.84181 2.62366 5.01929C2.62366 3.92527 3.05825 2.87606 3.83184 2.10247C4.60543 1.32888 5.65464 0.894287 6.74866 0.894287C7.84268 0.894287 8.89189 1.32888 9.66547 2.10247C10.4391 2.87606 10.8737 3.92527 10.8737 5.01929C10.8737 6.84181 9.8656 8.42817 8.90663 9.53098C8.42257 10.0877 7.93947 10.5344 7.57746 10.8421C7.3962 10.9962 7.24461 11.116 7.13751 11.1978C7.08394 11.2388 7.04144 11.2703 7.01188 11.2919C6.99709 11.3027 6.98553 11.311 6.97743 11.3168L6.96789 11.3236L6.96512 11.3255L6.96424 11.3261L6.96393 11.3263C6.96381 11.3264 6.96371 11.3265 6.74866 11.0193ZM6.74866 11.0193L6.96371 11.3265C6.83459 11.4169 6.66273 11.4169 6.53361 11.3265L6.74866 11.0193Z" fill="#FF7235"/>
</svg>
