<svg width="48" height="49" viewBox="0 0 48 49" fill="none" xmlns="http://www.w3.org/2000/svg">
<rect y="0.0578613" width="48" height="48" rx="24" fill="#F8FAFC"/>
<path d="M19.3983 34.7148L19.7868 32.2472L18.9214 32.2271H14.7885L17.6607 14.0177C17.6694 13.9627 17.6985 13.9115 17.7408 13.8751C17.7832 13.8387 17.8375 13.8186 17.894 13.8186H24.8626C27.1761 13.8186 28.7726 14.3 29.6062 15.2501C29.9969 15.6958 30.2459 16.1615 30.3663 16.6741C30.4925 17.2119 30.4948 17.8545 30.3714 18.6382L30.3624 18.6954V19.1975L30.7534 19.4189C31.0825 19.5935 31.3438 19.7933 31.5444 20.0221C31.8789 20.4032 32.0951 20.8875 32.1864 21.4617C32.2808 22.0523 32.2495 22.755 32.0951 23.5506C31.9168 24.4658 31.6285 25.2629 31.2393 25.9151C30.881 26.5161 30.4249 27.0144 29.8834 27.4008C29.3663 27.7678 28.7519 28.0464 28.0572 28.2247C27.384 28.3999 26.6167 28.4884 25.7749 28.4884H25.2326C24.8448 28.4884 24.468 28.628 24.1725 28.8784C23.8761 29.134 23.6797 29.4829 23.6196 29.8648L23.5788 30.087L22.8923 34.4362L22.8611 34.5959C22.853 34.6466 22.8388 34.6719 22.8181 34.689C22.7995 34.7044 22.7728 34.7148 22.7467 34.7148H19.3983Z" fill="#253B80"/>
<path d="M31.1216 18.7542C31.1009 18.8871 31.0771 19.023 31.0504 19.1627C30.1312 23.8805 26.9873 25.5103 22.9716 25.5103H20.9271C20.4361 25.5103 20.0223 25.8669 19.9457 26.3512L18.8989 32.9894L18.6025 34.8709C18.5526 35.1889 18.7979 35.4756 19.1187 35.4756H22.7451C23.1746 35.4756 23.5392 35.1637 23.6068 34.7403L23.6425 34.5559L24.3253 30.2236L24.3692 29.9861C24.4359 29.5612 24.8014 29.2492 25.2308 29.2492H25.7732C29.2865 29.2492 32.0369 27.8229 32.8408 23.6956C33.1766 21.9714 33.0027 20.5318 32.1141 19.5193C31.8453 19.214 31.5117 18.9607 31.1216 18.7542Z" fill="#179BD7"/>
<path d="M30.1584 18.3701C30.0181 18.3292 29.8731 18.2921 29.7245 18.2587C29.5752 18.226 29.4221 18.197 29.2647 18.1718C28.7133 18.0826 28.1094 18.0403 27.4622 18.0403H22.0003C21.8657 18.0403 21.7381 18.0707 21.6237 18.1257C21.3717 18.2468 21.1846 18.4853 21.1393 18.7772L19.9771 26.1358L19.9438 26.3505C20.0203 25.8662 20.4342 25.5096 20.9252 25.5096H22.9697C26.9853 25.5096 30.1295 23.8791 31.0485 19.162C31.0758 19.0223 31.0989 18.8864 31.1197 18.7534C30.8872 18.6301 30.6353 18.5246 30.3641 18.4347C30.2974 18.4124 30.2283 18.3909 30.1584 18.3701Z" fill="#222D65"/>
<path d="M21.1425 18.777C21.1878 18.4851 21.3751 18.2466 21.6268 18.1263C21.7421 18.0713 21.8691 18.0409 22.0035 18.0409H27.4656C28.1128 18.0409 28.7167 18.0832 29.2678 18.1723C29.4255 18.1976 29.5786 18.2266 29.7279 18.2593C29.8765 18.2927 30.0213 18.3298 30.1618 18.3707C30.2315 18.3915 30.3006 18.413 30.3682 18.4346C30.6393 18.5245 30.8913 18.6307 31.1237 18.7533C31.3972 17.0098 31.1216 15.8227 30.1789 14.7478C29.1395 13.5645 27.2635 13.0579 24.8632 13.0579H17.8944C17.404 13.0579 16.9859 13.4144 16.91 13.8995L14.0074 32.2961C13.9501 32.66 14.2309 32.9885 14.5979 32.9885H18.9003L19.9806 26.1357L21.1425 18.777Z" fill="#253B80"/>
</svg>
