<svg width="19" height="19" viewBox="0 0 19 19" fill="none" xmlns="http://www.w3.org/2000/svg">
<path d="M13.4987 10.7131V12.9631C13.4987 15.9631 12.2987 17.1631 9.29866 17.1631H6.44866C3.44866 17.1631 2.24866 15.9631 2.24866 12.9631V10.1131C2.24866 7.11309 3.44866 5.91309 6.44866 5.91309H8.69866" stroke="#292D32" stroke-width="1.5" stroke-linecap="round" stroke-linejoin="round"/>
<path d="M13.4987 10.7131H11.0987C9.29867 10.7131 8.69867 10.1131 8.69867 8.31309V5.91309L13.4987 10.7131Z" stroke="#292D32" stroke-width="1.5" stroke-linecap="round" stroke-linejoin="round"/>
<path d="M9.44867 2.16309H12.4487" stroke="#292D32" stroke-width="1.5" stroke-linecap="round" stroke-linejoin="round"/>
<path d="M5.99866 4.41309C5.99866 3.16809 7.00366 2.16309 8.24866 2.16309H10.2137" stroke="#292D32" stroke-width="1.5" stroke-linecap="round" stroke-linejoin="round"/>
<path d="M17.2486 6.66309V11.3056C17.2486 12.4681 16.3036 13.4131 15.1411 13.4131" stroke="#292D32" stroke-width="1.5" stroke-linecap="round" stroke-linejoin="round"/>
<path d="M17.2487 6.66309H14.9987C13.3112 6.66309 12.7487 6.10059 12.7487 4.41309V2.16309L17.2487 6.66309Z" stroke="#292D32" stroke-width="1.5" stroke-linecap="round" stroke-linejoin="round"/>
</svg>
