<svg width="301" height="300" viewBox="0 0 301 300" fill="none" xmlns="http://www.w3.org/2000/svg">
<path d="M102.944 41.886H36.248V158.574H102.944V41.886Z" fill="#FAFAFA"/>
<path d="M57.02 159.696C57.02 159.696 49.7 107.196 45.89 101.43C45.89 101.43 67.736 85.02 68.408 40.56H35.252V159.696H57.02Z" fill="#EBEBEB"/>
<path d="M82.154 159.462C82.154 159.462 89.462 106.962 93.29 101.196C93.29 101.196 71.438 84.792 70.772 40.326H103.928V159.462H82.154Z" fill="#EBEBEB"/>
<path d="M104.696 37.446H30.062V162.432H107.786V37.446H104.696ZM49.652 102.384V132.102H36.248V102.384H49.652ZM36.248 100.23V69.468H49.652V100.23H36.248ZM70.058 100.23V69.468H86.822V100.23H70.058ZM86.822 102.384V132.102H70.058V102.384H86.822ZM50.222 100.23V69.468H67.886V100.23H50.222ZM67.886 102.384V132.102H50.246V102.384H67.886ZM50.246 68.94V41.886H67.91V68.94H50.246ZM67.91 132.636V158.586H50.246V132.636H67.91ZM70.058 132.636H86.822V158.586H70.058V132.636ZM70.058 68.94V41.886H86.822V68.94H70.058ZM87.422 102.384H101.606V132.102H87.422V102.384ZM87.422 100.23V69.468H101.606V100.23H87.422ZM101.606 68.94H87.422V41.886H101.606V68.94ZM49.652 41.886V68.94H36.248V41.886H49.652ZM36.248 132.636H49.652V158.586H36.248V132.636ZM87.422 158.586V132.636H101.606V158.586H87.422Z" fill="#E0E0E0"/>
<path d="M271.976 41.886H205.28V158.574H271.976V41.886Z" fill="#FAFAFA"/>
<path d="M226.058 159.696C226.058 159.696 218.75 107.196 214.922 101.43C214.922 101.43 236.774 85.02 237.44 40.56H204.284V159.696H226.058Z" fill="#EBEBEB"/>
<path d="M251.192 159.462C251.192 159.462 258.494 106.962 262.322 101.196C262.322 101.196 240.476 84.792 239.804 40.326H272.96V159.462H251.192Z" fill="#EBEBEB"/>
<path d="M273.734 37.446H199.1V162.432H276.824V37.446H273.734ZM218.69 102.384V132.102H205.28V102.384H218.69ZM205.28 100.23V69.468H218.69V100.23H205.28ZM239.09 100.23V69.468H255.89V100.23H239.09ZM255.89 102.384V132.102H239.09V102.384H255.89ZM219.29 100.23V69.468H236.948V100.23H219.29ZM236.948 102.384V132.102H219.284V102.384H236.948ZM219.284 68.94V41.886H236.942V68.94H219.284ZM236.942 132.636V158.586H219.284V132.636H236.942ZM239.09 132.636H255.89V158.586H239.09V132.636ZM239.09 68.94V41.886H255.89V68.94H239.09ZM256.454 102.384H270.638V132.102H256.454V102.384ZM256.454 100.23V69.468H270.638V100.23H256.454ZM270.638 68.94H256.454V41.886H270.638V68.94ZM218.69 41.886V68.94H205.28V41.886H218.69ZM205.28 132.636H218.69V158.586H205.28V132.636ZM256.454 158.586V132.636H270.638V158.586H256.454Z" fill="#E0E0E0"/>
<path d="M142.034 70.05H125.816V90.522H142.034V70.05Z" fill="#EBEBEB"/>
<path d="M135.152 90.06H132.902V90.606H135.152V90.06Z" fill="#E0E0E0"/>
<path d="M134.444 77.094L131.456 77.532L130.346 80.34L132.218 82.704L135.2 82.266L136.316 79.464L134.444 77.094Z" fill="#E0E0E0"/>
<path d="M135.842 78.906L132.854 79.344L131.738 82.152L133.61 84.516L136.598 84.084L137.714 81.276L135.842 78.906Z" fill="#FAFAFA"/>
<path d="M135.47 69.768H133.22V70.236H135.47V69.768Z" fill="#E0E0E0"/>
<path d="M181.388 42.72H154.31V76.902H181.388V42.72Z" fill="#EBEBEB"/>
<path d="M169.898 76.14H166.142V77.052H169.898V76.14Z" fill="#E0E0E0"/>
<path d="M168.716 54.492L163.724 55.218L161.864 59.904L164.99 63.858L169.976 63.132L171.836 58.446L168.716 54.492Z" fill="#E0E0E0"/>
<path d="M171.044 57.516L166.058 58.248L164.192 62.934L167.324 66.888L172.31 66.156L174.17 61.476L171.044 57.516Z" fill="#FAFAFA"/>
<path d="M170.426 42.258H166.67V43.038H170.426V42.258Z" fill="#E0E0E0"/>
<path d="M136.016 185.268C132.344 185.868 130.706 190.368 131.024 194.076C131.342 197.784 132.872 201.402 132.464 205.098C131.942 209.796 128.396 213.762 127.982 218.466C127.496 224.016 131.42 228.936 132.59 234.384C133.16 237.03 133.082 239.832 134.066 242.358C134.905 244.509 136.465 246.302 138.479 247.431C140.492 248.56 142.835 248.955 145.108 248.55C147.381 248.144 149.442 246.962 150.941 245.206C152.44 243.45 153.283 241.228 153.326 238.92C153.404 234.66 150.776 230.646 151.094 226.398C151.328 223.254 153.17 220.278 152.78 217.152C152.306 213.438 148.862 210.798 147.65 207.252C146.438 203.706 147.602 199.8 147.182 196.074C146.426 189.39 142.724 184.728 136.016 185.274" fill="#F5F5F5"/>
<path d="M117.266 217.626C116.666 223.818 119.378 231.102 122.564 236.448C125.791 241.829 130.647 246.043 136.43 248.478C137.072 248.748 137.882 248.976 138.428 248.538C138.621 248.324 138.765 248.072 138.852 247.798C138.939 247.523 138.966 247.234 138.932 246.948C138.975 240.375 136.887 233.966 132.981 228.68C129.075 223.394 123.561 219.515 117.266 217.626Z" fill="#EBEBEB"/>
<path d="M144.242 261.426C144.168 261.32 144.108 261.205 144.062 261.084C143.948 260.814 143.804 260.484 143.624 260.07C143.252 259.182 142.694 257.91 141.986 256.35C140.139 252.281 138.086 248.307 135.836 244.446C133.577 240.59 131.124 236.851 128.486 233.244C127.472 231.864 126.632 230.754 126.044 229.992L125.378 229.11C125.294 229.014 125.223 228.907 125.168 228.792C125.168 228.792 125.27 228.876 125.432 229.068L126.152 229.908C126.752 230.64 127.64 231.708 128.684 233.1C131.389 236.671 133.879 240.4 136.142 244.266C138.4 248.143 140.427 252.15 142.214 256.266C142.892 257.844 143.414 259.134 143.75 260.034C143.906 260.454 144.032 260.802 144.128 261.072C144.179 261.185 144.217 261.304 144.242 261.426Z" fill="#E0E0E0"/>
<path d="M140.252 202.398C140.291 202.596 140.315 202.796 140.324 202.998C140.354 203.418 140.396 203.988 140.444 204.702C140.54 206.22 140.678 208.35 140.852 210.978C141.182 216.276 141.656 223.578 142.22 231.672C142.784 239.766 143.348 247.068 143.762 252.36C143.96 254.982 144.128 257.118 144.242 258.63C144.29 259.344 144.326 259.914 144.356 260.334C144.372 260.534 144.372 260.734 144.356 260.934C144.311 260.737 144.281 260.536 144.266 260.334C144.224 259.92 144.164 259.35 144.086 258.636C143.942 257.124 143.744 254.994 143.486 252.378C143.012 247.086 142.412 239.778 141.842 231.69C141.272 223.602 140.84 216.288 140.57 210.984C140.45 208.356 140.348 206.22 140.276 204.702C140.276 203.988 140.234 203.418 140.222 202.998C140.216 202.798 140.226 202.597 140.252 202.398Z" fill="#E0E0E0"/>
<path d="M134.558 252.6H150.068V264C150.068 265.975 149.284 267.869 147.887 269.265C146.491 270.661 144.597 271.446 142.622 271.446C140.716 271.446 138.883 270.714 137.5 269.403C136.117 268.091 135.289 266.299 135.188 264.396L134.558 252.6Z" fill="#E0E0E0"/>
<path d="M284.828 271.638C284.828 271.722 224.114 271.794 149.228 271.794C74.3421 271.794 13.6281 271.722 13.6281 271.638C13.6281 271.554 74.3301 271.482 149.228 271.482C224.126 271.482 284.828 271.554 284.828 271.638Z" fill="#263238"/>
<path d="M200.012 144.852L197.612 144.354C195.47 143.712 194.258 143.436 193.76 142.734C193.1 141.792 194.36 141.252 194.36 141.252C194.36 141.252 192.884 140.394 193.226 139.452C193.31 139.265 193.451 139.11 193.629 139.008C193.807 138.907 194.013 138.865 194.216 138.888C194.216 138.888 192.932 138.066 192.77 137.43C192.548 136.566 193.616 136.338 193.616 136.338C191.948 134.79 192.35 133.662 192.812 133.638C193.274 133.614 194.612 134.58 194.612 134.58C195.812 135.18 199.004 136.902 198.11 134.766C197.216 132.63 197.33 130.656 197.732 130.14C197.838 130.03 197.976 129.956 198.127 129.929C198.277 129.903 198.433 129.924 198.57 129.99C198.708 130.057 198.821 130.165 198.894 130.3C198.966 130.434 198.994 130.588 198.974 130.74C199.027 131.52 199.187 132.289 199.448 133.026C199.638 133.625 199.928 134.187 200.306 134.688C200.75 135.288 201.146 135.75 201.506 136.146L203.24 138.63L200.012 144.852Z" fill="#FFBE9D"/>
<path d="M190.772 269.238L192.836 264.882L201.02 268.698L198.068 275.1L197.546 274.896C195.23 273.966 185.834 270.018 184.538 268.854C183.092 267.558 190.772 269.238 190.772 269.238Z" fill="#FF7235"/>
<g opacity="0.3">
<path d="M195.128 273.648C195.572 273.015 196.235 272.569 196.988 272.394C197.729 272.21 198.512 272.315 199.178 272.688L198.11 274.974L195.128 273.648Z" fill="white"/>
</g>
<g opacity="0.3">
<path d="M186.962 268.536C186.962 268.536 184.202 268.104 184.316 268.65C184.43 269.196 193.778 273.54 198.068 275.1L198.14 274.908L187.196 269.928C187.196 269.928 187.43 268.8 186.962 268.536Z" fill="white"/>
</g>
<path d="M198.266 274.962L198.122 274.914L197.708 274.752L196.19 274.122C194.912 273.582 193.154 272.814 191.24 271.92C189.326 271.026 187.598 270.186 186.362 269.556L184.904 268.8L184.514 268.59L184.376 268.512C184.427 268.525 184.475 268.545 184.52 268.572L184.922 268.764L186.398 269.49C187.64 270.09 189.368 270.93 191.282 271.824C193.196 272.718 194.948 273.492 196.22 274.05L197.72 274.71L198.128 274.89L198.266 274.962Z" fill="#263238"/>
<path d="M187.142 270.054C187.188 269.779 187.204 269.499 187.19 269.22C187.141 268.942 187.06 268.67 186.95 268.41C187.142 268.634 187.263 268.91 187.297 269.203C187.331 269.496 187.277 269.792 187.142 270.054Z" fill="#263238"/>
<path d="M190.1 269.958C190.03 269.822 189.991 269.673 189.986 269.52C189.95 269.374 189.95 269.222 189.986 269.076C189.986 269.076 190.064 269.262 190.094 269.508C190.133 269.655 190.135 269.81 190.1 269.958Z" fill="#263238"/>
<path d="M190.952 269.916C190.922 269.916 190.832 269.778 190.748 269.586C190.664 269.394 190.622 269.232 190.652 269.22C190.682 269.208 190.772 269.352 190.85 269.544C190.916 269.657 190.951 269.785 190.952 269.916Z" fill="#263238"/>
<path d="M191.726 269.334C191.726 269.364 191.516 269.298 191.276 269.19C191.125 269.14 190.986 269.058 190.868 268.95C190.868 268.92 191.084 268.986 191.318 269.094C191.469 269.144 191.608 269.226 191.726 269.334Z" fill="#263238"/>
<path d="M192.128 268.86C191.942 268.888 191.751 268.859 191.582 268.776C191.404 268.727 191.245 268.624 191.126 268.482C191.298 268.53 191.465 268.594 191.624 268.674C191.797 268.722 191.966 268.784 192.128 268.86Z" fill="#263238"/>
<path d="M190.178 269.112C189.991 269.06 189.815 268.977 189.656 268.866C189.476 268.755 189.307 268.626 189.152 268.482C189.058 268.398 188.973 268.303 188.9 268.2C188.855 268.135 188.835 268.056 188.846 267.978C188.854 267.935 188.875 267.895 188.906 267.864C188.937 267.833 188.977 267.812 189.02 267.804C189.178 267.802 189.335 267.836 189.479 267.902C189.623 267.968 189.751 268.064 189.854 268.185C189.956 268.306 190.031 268.448 190.072 268.601C190.114 268.754 190.121 268.914 190.094 269.07C190.087 269.123 190.068 269.174 190.04 269.22C190.06 269.032 190.05 268.841 190.01 268.656C189.954 268.464 189.846 268.292 189.698 268.158C189.612 268.075 189.511 268.01 189.399 267.967C189.288 267.924 189.169 267.903 189.05 267.906C188.936 267.906 188.924 268.044 188.99 268.146C189.06 268.242 189.141 268.331 189.23 268.41C189.378 268.552 189.537 268.682 189.704 268.8C189.986 269.004 190.184 269.094 190.178 269.112Z" fill="#263238"/>
<path d="M190.028 269.076C190.018 268.935 190.059 268.794 190.142 268.68C190.223 268.551 190.331 268.443 190.46 268.362C190.542 268.306 190.636 268.272 190.735 268.261C190.833 268.251 190.932 268.265 191.024 268.302C191.071 268.339 191.102 268.392 191.111 268.451C191.12 268.511 191.106 268.571 191.072 268.62C191.022 268.699 190.954 268.764 190.874 268.812C190.752 268.897 190.619 268.966 190.478 269.016C190.352 269.072 190.214 269.097 190.076 269.088C190.076 269.088 190.226 269.04 190.448 268.944C190.579 268.887 190.702 268.815 190.814 268.728C190.94 268.65 191.084 268.476 190.964 268.392C190.844 268.308 190.64 268.392 190.514 268.452C190.393 268.52 190.286 268.611 190.202 268.722C190.137 268.837 190.079 268.955 190.028 269.076Z" fill="#263238"/>
<path d="M199.142 272.646C199.142 272.646 198.92 272.514 198.542 272.388C198.035 272.22 197.491 272.195 196.97 272.316C196.453 272.45 195.98 272.719 195.602 273.096C195.314 273.39 195.194 273.618 195.176 273.612C195.191 273.551 195.217 273.494 195.254 273.444C195.336 273.299 195.435 273.164 195.548 273.042C195.921 272.632 196.408 272.342 196.946 272.208C197.485 272.081 198.049 272.119 198.566 272.316C198.721 272.372 198.87 272.445 199.01 272.532C199.1 272.598 199.148 272.64 199.142 272.646Z" fill="#263238"/>
<path d="M199.88 268.848C199.68 269.432 199.444 270.003 199.172 270.558C198.932 271.131 198.66 271.69 198.356 272.232C198.562 271.647 198.8 271.074 199.07 270.516C199.308 269.945 199.579 269.388 199.88 268.848Z" fill="#263238"/>
<path d="M194.468 272.4C194.036 272.304 193.617 272.157 193.22 271.962C192.811 271.792 192.424 271.572 192.068 271.308C192.068 271.278 192.602 271.56 193.268 271.86C193.934 272.16 194.48 272.346 194.468 272.4Z" fill="#263238"/>
<path d="M196.1 273.12C196.1 273.12 196.004 273.21 195.89 273.306C195.776 273.402 195.698 273.498 195.674 273.486C195.65 273.474 195.674 273.336 195.818 273.222C195.962 273.108 196.1 273.09 196.1 273.12Z" fill="#263238"/>
<path d="M197.03 272.646C197.03 272.646 196.946 272.736 196.826 272.784C196.706 272.832 196.592 272.844 196.58 272.814C196.568 272.784 196.664 272.724 196.784 272.682C196.904 272.64 197.018 272.616 197.03 272.646Z" fill="#263238"/>
<path d="M198.056 272.706C198.056 272.706 197.93 272.676 197.786 272.664C197.642 272.652 197.534 272.664 197.522 272.664C197.51 272.664 197.63 272.556 197.798 272.574C197.966 272.592 198.074 272.682 198.056 272.706Z" fill="#263238"/>
<path d="M198.746 272.832C198.746 272.832 198.68 272.88 198.596 272.874C198.512 272.868 198.452 272.838 198.458 272.808C198.464 272.778 198.524 272.76 198.608 272.766C198.692 272.772 198.746 272.802 198.746 272.832Z" fill="#263238"/>
<path d="M259.802 271.62L257.762 267.252L265.916 263.4L268.97 269.754L268.478 270.03C266.288 271.23 257.258 275.94 255.536 276.198C253.616 276.468 259.802 271.62 259.802 271.62Z" fill="#FF7235"/>
<g opacity="0.3">
<path d="M265.982 271.074C265.773 270.329 265.85 269.533 266.198 268.842C266.532 268.159 267.11 267.626 267.818 267.348L268.904 269.622L265.982 271.074Z" fill="white"/>
</g>
<g opacity="0.3">
<path d="M256.838 274.11C256.838 274.11 254.744 275.964 255.236 276.222C255.728 276.48 265.034 272.022 268.97 269.736L268.868 269.562L258.068 274.818C258.068 274.818 257.3 273.906 256.838 274.11Z" fill="white"/>
</g>
<path d="M268.994 269.496L268.862 269.574L268.472 269.79L267.02 270.558C265.79 271.2 264.08 272.064 262.166 272.958C260.252 273.852 258.512 274.65 257.24 275.202L255.728 275.85L255.314 276.018L255.17 276.066L255.308 275.994L255.71 275.808L257.21 275.136C258.47 274.566 260.21 273.768 262.124 272.856C264.038 271.944 265.724 271.098 266.984 270.456L268.448 269.718L268.85 269.52C268.897 269.507 268.945 269.499 268.994 269.496Z" fill="#263238"/>
<path d="M258.122 274.944C257.945 274.723 257.744 274.521 257.522 274.344C257.277 274.206 257.017 274.096 256.748 274.014C257.044 274.01 257.334 274.093 257.582 274.255C257.83 274.416 258.024 274.648 258.14 274.92L258.122 274.944Z" fill="#263238"/>
<path d="M259.946 272.58C259.946 272.58 259.748 272.52 259.538 272.388C259.328 272.256 259.172 272.13 259.19 272.106C259.208 272.082 259.388 272.166 259.598 272.298C259.808 272.43 259.958 272.556 259.946 272.58Z" fill="#263238"/>
<path d="M260.438 271.914C260.438 271.944 260.258 271.914 260.06 271.86C259.862 271.806 259.706 271.728 259.712 271.698C259.841 271.687 259.971 271.707 260.09 271.758C260.3 271.8 260.444 271.884 260.438 271.914Z" fill="#263238"/>
<path d="M260.492 270.948C260.492 270.978 260.324 271.092 260.09 271.206C259.856 271.32 259.658 271.392 259.64 271.362C259.754 271.248 259.891 271.16 260.042 271.104C260.3 270.99 260.474 270.918 260.492 270.948Z" fill="#263238"/>
<path d="M260.372 270.336C260.372 270.336 260.234 270.552 259.964 270.702C259.81 270.806 259.629 270.865 259.442 270.87C259.755 270.697 260.065 270.519 260.372 270.336Z" fill="#263238"/>
<path d="M259.328 271.998C259.171 272.112 258.994 272.195 258.806 272.244C258.611 272.312 258.41 272.36 258.206 272.388C258.079 272.404 257.95 272.404 257.822 272.388C257.783 272.386 257.745 272.376 257.71 272.358C257.674 272.341 257.643 272.316 257.618 272.286C257.595 272.249 257.582 272.207 257.582 272.163C257.582 272.119 257.595 272.077 257.618 272.04C257.772 271.847 257.989 271.713 258.231 271.662C258.472 271.61 258.725 271.644 258.944 271.758C259.073 271.825 259.187 271.917 259.28 272.028C259.315 272.066 259.342 272.111 259.358 272.16C259.228 272.025 259.076 271.913 258.908 271.83C258.721 271.743 258.511 271.716 258.308 271.752C258.191 271.765 258.077 271.802 257.974 271.86C257.871 271.917 257.781 271.995 257.708 272.088C257.654 272.19 257.708 272.274 257.852 272.286C257.97 272.298 258.088 272.298 258.206 272.286C258.409 272.265 258.61 272.227 258.806 272.172C259.1 272.076 259.322 271.986 259.328 271.998Z" fill="#263238"/>
<path d="M259.208 272.088C259.208 272.088 259.058 272.004 258.974 271.752C258.925 271.607 258.911 271.453 258.932 271.302C258.941 271.203 258.974 271.108 259.029 271.026C259.083 270.943 259.157 270.875 259.244 270.828C259.303 270.815 259.364 270.825 259.416 270.857C259.467 270.888 259.505 270.938 259.52 270.996C259.54 271.087 259.54 271.181 259.52 271.272C259.506 271.42 259.472 271.565 259.418 271.704C259.334 271.944 259.232 272.07 259.22 272.058C259.208 272.046 259.28 271.914 259.346 271.68C259.385 271.545 259.409 271.406 259.418 271.266C259.418 271.116 259.388 270.894 259.25 270.936C259.112 270.978 259.04 271.182 259.01 271.32C258.979 271.456 258.979 271.598 259.01 271.734C259.062 271.86 259.128 271.978 259.208 272.088Z" fill="#263238"/>
<path d="M267.764 267.342C267.764 267.342 267.524 267.432 267.164 267.654C266.716 267.931 266.354 268.328 266.12 268.8C265.89 269.281 265.796 269.817 265.85 270.348C265.892 270.762 265.988 271.002 265.97 271.008C265.935 270.956 265.909 270.9 265.892 270.84C265.834 270.685 265.794 270.524 265.772 270.36C265.693 269.811 265.779 269.252 266.018 268.752C266.259 268.248 266.649 267.829 267.134 267.552C267.278 267.467 267.431 267.399 267.59 267.348C267.647 267.336 267.706 267.334 267.764 267.342Z" fill="#263238"/>
<path d="M265.31 264.354C265.628 264.884 265.917 265.43 266.174 265.992C266.463 266.54 266.719 267.105 266.942 267.684C266.623 267.153 266.335 266.604 266.078 266.04C265.786 265.495 265.529 264.932 265.31 264.354Z" fill="#263238"/>
<path d="M264.578 270.768C264.231 271.044 263.85 271.274 263.444 271.452C263.055 271.664 262.639 271.823 262.208 271.926C262.208 271.926 262.742 271.674 263.408 271.356C264.074 271.038 264.56 270.744 264.578 270.768Z" fill="#263238"/>
<path d="M266.174 270C266.174 270 266.174 270.138 266.174 270.282C266.174 270.426 266.204 270.552 266.174 270.564C266.144 270.576 266.066 270.456 266.066 270.288C266.066 270.12 266.144 270 266.174 270Z" fill="#263238"/>
<path d="M266.42 268.974C266.45 268.974 266.42 269.094 266.39 269.22C266.36 269.346 266.288 269.436 266.264 269.43C266.24 269.424 266.264 269.31 266.264 269.184C266.264 269.058 266.39 268.962 266.42 268.974Z" fill="#263238"/>
<path d="M267.116 268.2C267.116 268.23 267.014 268.284 266.918 268.38C266.822 268.476 266.762 268.584 266.732 268.578C266.702 268.572 266.732 268.422 266.84 268.302C266.948 268.182 267.116 268.2 267.116 268.2Z" fill="#263238"/>
<path d="M267.656 267.768C267.656 267.768 267.656 267.852 267.596 267.912C267.536 267.972 267.476 267.996 267.452 267.978C267.428 267.96 267.452 267.894 267.512 267.834C267.572 267.774 267.632 267.744 267.656 267.768Z" fill="#263238"/>
<path d="M269.336 265.548L256.136 271.686L232.4 229.428C229.31 218.28 226.328 179.028 226.328 179.028L243.5 180.336C243.5 180.336 246.146 208.536 250.292 223.032L269.336 265.548Z" fill="#263238"/>
<path d="M254.024 267.552C254.024 267.552 254.192 267.426 254.522 267.252C254.852 267.078 255.338 266.832 255.938 266.538C257.138 265.938 258.812 265.152 260.666 264.288C262.52 263.424 264.2 262.662 265.424 262.128C266.024 261.858 266.54 261.642 266.882 261.528C267.057 261.439 267.242 261.375 267.434 261.336C267.283 261.459 267.116 261.56 266.936 261.636C266.6 261.81 266.12 262.056 265.52 262.35C264.32 262.95 262.646 263.736 260.798 264.6C258.95 265.464 257.264 266.22 256.034 266.76C255.434 267.03 254.924 267.246 254.576 267.36C254.402 267.45 254.216 267.514 254.024 267.552Z" fill="#455A64"/>
<path d="M251.3 163.23C251.624 163.23 255.134 173.628 251.756 180.522C251.414 181.212 248.756 185.01 248.756 185.01C239.408 196.038 229.94 217.41 227.3 223.044C221.9 234.57 201.884 272.484 201.884 272.484L189.044 265.134L207.818 216.864L224.858 173.304L251.3 163.23Z" fill="#263238"/>
<path d="M228.152 207.828C228.152 207.828 227.246 212.214 226.778 211.962C225.44 211.236 216.242 207.81 216.242 207.81L218.726 205.056L228.152 207.828Z" fill="#455A64"/>
<path d="M225.44 211.236C225.44 211.236 223.718 218.31 221.504 217.926C219.29 217.542 214.664 215.214 214.664 215.214L217.454 208.236L225.44 211.236Z" fill="#455A64"/>
<path d="M226.778 211.962L216.512 207.858L217.004 209.364L225.134 212.34L226.778 211.962Z" fill="#263238"/>
<path d="M244.598 190.56C244.555 190.655 244.498 190.744 244.43 190.824L243.902 191.538C243.446 192.138 242.798 193.074 242.048 194.232C240.542 196.548 238.646 199.86 236.708 203.604C234.77 207.348 233.108 210.804 231.938 213.288L230.528 216.246L230.138 217.044C230.097 217.14 230.045 217.23 229.982 217.314C230.001 217.212 230.034 217.113 230.078 217.02L230.42 216.198C230.72 215.484 231.17 214.458 231.734 213.198C232.874 210.678 234.482 207.198 236.432 203.46C238.056 200.246 239.859 197.125 241.832 194.112C242.612 192.966 243.284 192.066 243.776 191.466C244.004 191.19 244.196 190.968 244.376 190.788C244.44 190.703 244.515 190.626 244.598 190.56Z" fill="#455A64"/>
<path d="M190.022 262.884C190.058 262.812 193.088 264.252 196.79 266.106C200.492 267.96 203.456 269.532 203.39 269.61C203.324 269.688 200.324 268.242 196.622 266.388C192.92 264.534 189.986 262.962 190.022 262.884Z" fill="#455A64"/>
<path d="M205.28 138.378C204.584 139.95 203.794 141.478 202.916 142.956C202.129 144.486 201.247 145.964 200.276 147.384C200.974 145.811 201.763 144.28 202.64 142.8C203.431 141.275 204.313 139.798 205.28 138.378Z" fill="#263238"/>
<path d="M229.538 120.12C230.24 120.12 231.074 125.22 231.782 134.382C232.586 144.774 232.514 155.262 229.64 161.856C229.375 162.56 228.973 163.205 228.458 163.754C227.944 164.302 227.326 164.744 226.64 165.054C219.2 168.126 198.674 146.118 198.674 146.118L203.726 137.256L218.18 148.926C218.18 148.926 219.62 137.118 219.344 131.676C219.122 127.548 223.244 120.168 229.538 120.12Z" fill="#455A64"/>
<path d="M235.934 120.222C235.934 120.222 248.486 122.058 251.732 126.99C254.978 131.922 253.334 175.422 253.334 175.422L221.066 177.33C221.066 177.33 223.67 121.962 225.266 121.332C229.274 119.76 235.454 120.066 235.934 120.222Z" fill="#455A64"/>
<path d="M184.274 108.768C184.18 107.448 184.426 106.126 184.988 104.928C185.237 104.415 185.368 103.854 185.372 103.284V101.826H166.562C165.797 101.826 165.063 102.13 164.521 102.671C163.98 103.213 163.676 103.947 163.676 104.712V123.444H162.404C161.816 123.438 161.238 123.299 160.712 123.036C159.533 122.468 158.23 122.206 156.923 122.274C155.617 122.342 154.348 122.738 153.234 123.424C152.12 124.111 151.197 125.067 150.55 126.204C149.902 127.341 149.551 128.623 149.529 129.932C149.507 131.24 149.814 132.533 150.423 133.691C151.031 134.85 151.922 135.836 153.012 136.56C154.102 137.285 155.356 137.723 156.66 137.835C157.964 137.947 159.275 137.729 160.472 137.202C160.968 136.976 161.505 136.858 162.05 136.854H163.7V155.118C163.699 155.497 163.773 155.873 163.918 156.224C164.063 156.575 164.275 156.894 164.543 157.163C164.811 157.431 165.13 157.644 165.48 157.79C165.831 157.935 166.207 158.01 166.586 158.01H217.4C218.024 158.01 218.622 157.762 219.063 157.321C219.504 156.88 219.752 156.282 219.752 155.658V104.178C219.753 103.869 219.693 103.563 219.575 103.277C219.457 102.991 219.284 102.732 219.065 102.513C218.846 102.295 218.587 102.121 218.301 102.003C218.015 101.885 217.709 101.825 217.4 101.826H199.04V103.908C199.038 104.39 199.132 104.867 199.316 105.312C199.746 106.359 199.943 107.486 199.893 108.617C199.843 109.747 199.548 110.853 199.028 111.858C198.508 112.863 197.776 113.743 196.882 114.436C195.988 115.13 194.954 115.621 193.852 115.875C192.749 116.129 191.604 116.14 190.497 115.908C189.39 115.675 188.346 115.204 187.439 114.528C186.532 113.852 185.783 112.987 185.243 111.992C184.704 110.997 184.388 109.897 184.316 108.768H184.274Z" fill="#FF7235"/>
<path d="M223.256 129.474C223.275 129.593 223.285 129.713 223.286 129.834C223.286 130.11 223.286 130.434 223.286 130.872C223.286 131.814 223.286 133.11 223.334 134.688C223.334 137.91 223.388 142.362 223.286 147.288C223.184 152.214 222.914 156.66 222.584 159.888C222.416 161.496 222.254 162.786 222.122 163.68C222.056 164.1 222.002 164.436 221.954 164.706C221.945 164.827 221.919 164.946 221.876 165.06C221.868 164.94 221.868 164.82 221.876 164.7C221.906 164.43 221.936 164.1 221.984 163.668C222.074 162.768 222.206 161.472 222.344 159.87C222.62 156.66 222.866 152.22 222.944 147.306C223.022 142.392 223.04 137.946 223.082 134.706C223.082 133.128 223.124 131.832 223.136 130.89C223.136 130.47 223.136 130.122 223.166 129.852C223.179 129.723 223.209 129.595 223.256 129.474Z" fill="#263238"/>
<path d="M242.45 99.714C241.934 102.99 241.964 105.864 243.566 108C243.914 108.411 244.234 108.844 244.526 109.296C244.671 109.524 244.767 109.778 244.809 110.045C244.852 110.311 244.839 110.583 244.772 110.844C244.698 111.076 244.563 111.283 244.382 111.445C244.201 111.608 243.979 111.719 243.741 111.767C243.503 111.815 243.256 111.799 243.026 111.72C242.795 111.641 242.591 111.502 242.432 111.318C242.484 111.689 242.424 112.066 242.261 112.403C242.097 112.739 241.837 113.02 241.514 113.208C241.349 113.284 241.168 113.322 240.986 113.318C240.804 113.314 240.626 113.268 240.464 113.185C240.302 113.102 240.161 112.983 240.052 112.837C239.943 112.691 239.868 112.523 239.834 112.344C239.834 112.344 240.26 114.006 238.352 113.748L239.696 102.348L242.45 99.714Z" fill="#263238"/>
<path d="M233.9 124.914C233.156 124.914 232.42 124.757 231.74 124.454C231.06 124.152 230.451 123.709 229.953 123.156C229.455 122.602 229.079 121.951 228.85 121.243C228.62 120.535 228.542 119.786 228.62 119.046C228.794 117.342 228.95 115.956 228.95 115.956C228.95 115.956 224.75 115.302 224.696 111.102C224.642 106.902 225.374 97.26 225.374 97.26C227.762 96.2352 230.379 95.8661 232.957 96.191C235.535 96.5159 237.979 97.5228 240.038 99.108L240.638 99.582L239.18 119.982C239.085 121.319 238.487 122.57 237.508 123.484C236.529 124.399 235.24 124.91 233.9 124.914Z" fill="#FFBE9D"/>
<path d="M226.454 104.844C226.541 104.764 226.601 104.66 226.629 104.545C226.657 104.43 226.65 104.31 226.609 104.199C226.569 104.088 226.496 103.991 226.401 103.921C226.306 103.851 226.193 103.811 226.075 103.805C225.957 103.8 225.84 103.829 225.739 103.889C225.637 103.949 225.556 104.038 225.505 104.145C225.454 104.251 225.435 104.37 225.451 104.487C225.468 104.604 225.518 104.714 225.596 104.802C225.649 104.862 225.714 104.911 225.786 104.945C225.858 104.98 225.936 105 226.016 105.004C226.096 105.008 226.176 104.996 226.251 104.968C226.326 104.941 226.395 104.899 226.454 104.844Z" fill="#263238"/>
<path d="M225.29 103.518C225.356 103.59 225.77 103.272 226.346 103.272C226.922 103.272 227.348 103.566 227.408 103.494C227.468 103.422 227.378 103.332 227.192 103.188C226.946 103.01 226.649 102.917 226.346 102.924C226.042 102.924 225.746 103.021 225.5 103.2C225.32 103.356 225.26 103.488 225.29 103.518Z" fill="#263238"/>
<path d="M231.956 104.4C231.887 104.441 231.827 104.495 231.779 104.559C231.732 104.623 231.697 104.696 231.678 104.774C231.659 104.852 231.656 104.932 231.669 105.011C231.681 105.09 231.71 105.166 231.752 105.234C231.793 105.304 231.847 105.364 231.912 105.413C231.976 105.461 232.05 105.496 232.129 105.515C232.207 105.534 232.288 105.537 232.368 105.524C232.448 105.51 232.524 105.481 232.592 105.438C232.661 105.397 232.721 105.342 232.769 105.277C232.817 105.212 232.851 105.138 232.869 105.06C232.888 104.982 232.89 104.9 232.877 104.821C232.863 104.742 232.833 104.666 232.79 104.598C232.749 104.53 232.694 104.47 232.63 104.423C232.565 104.376 232.492 104.342 232.415 104.324C232.337 104.305 232.256 104.303 232.178 104.316C232.099 104.329 232.023 104.357 231.956 104.4Z" fill="#263238"/>
<path d="M231.572 104.028C231.638 104.1 232.052 103.782 232.628 103.782C233.204 103.782 233.63 104.076 233.69 104.004C233.75 103.932 233.654 103.842 233.474 103.698C233.227 103.519 232.927 103.427 232.622 103.434C232.318 103.434 232.022 103.536 231.782 103.722C231.602 103.866 231.542 103.998 231.572 104.028Z" fill="#263238"/>
<path d="M229.256 108.798C228.956 108.684 228.641 108.617 228.32 108.6C228.17 108.6 228.05 108.552 228.038 108.468C228.032 108.317 228.069 108.167 228.146 108.036L228.602 106.836C229.038 105.843 229.37 104.807 229.592 103.746C229.061 104.7 228.626 105.705 228.296 106.746C228.146 107.154 228.002 107.544 227.864 107.946C227.763 108.14 227.734 108.363 227.78 108.576C227.801 108.633 227.836 108.685 227.88 108.727C227.925 108.768 227.979 108.799 228.038 108.816C228.122 108.838 228.209 108.85 228.296 108.852C228.617 108.889 228.942 108.871 229.256 108.798Z" fill="#263238"/>
<path d="M231.134 109.44C231.734 109.08 229.472 110.322 228.296 110.262C228.492 110.566 228.785 110.794 229.127 110.909C229.469 111.025 229.84 111.021 230.18 110.898C231.44 110.436 231.134 109.44 231.134 109.44Z" fill="white"/>
<path d="M228.914 115.896C230.853 115.932 232.758 115.389 234.386 114.336C234.386 114.336 233.09 117.336 228.902 116.982L228.914 115.896Z" fill="#EB996E"/>
<path d="M240.638 103.65C240.728 103.62 243.77 103.41 243.266 106.95C242.762 110.49 239.354 108.81 239.36 108.708C239.366 108.606 240.638 103.65 240.638 103.65Z" fill="#FFBE9D"/>
<path d="M240.62 107.622C240.62 107.622 240.674 107.676 240.776 107.736C240.843 107.779 240.918 107.807 240.996 107.821C241.075 107.834 241.155 107.832 241.232 107.814C241.482 107.701 241.696 107.524 241.855 107.3C242.013 107.076 242.109 106.815 242.132 106.542C242.188 106.241 242.174 105.931 242.09 105.636C242.072 105.521 242.027 105.412 241.958 105.318C241.889 105.224 241.799 105.148 241.694 105.096C241.626 105.066 241.548 105.061 241.477 105.083C241.405 105.105 241.344 105.153 241.304 105.216C241.244 105.306 241.256 105.378 241.232 105.384C241.208 105.39 241.166 105.312 241.232 105.174C241.263 105.087 241.325 105.014 241.406 104.97C241.459 104.939 241.518 104.919 241.579 104.912C241.64 104.905 241.701 104.91 241.76 104.928C241.901 104.983 242.024 105.075 242.119 105.192C242.214 105.31 242.276 105.451 242.3 105.6C242.41 105.926 242.434 106.275 242.372 106.614C242.346 106.932 242.226 107.235 242.027 107.485C241.828 107.735 241.56 107.921 241.256 108.018C241.157 108.032 241.056 108.023 240.961 107.993C240.865 107.963 240.778 107.912 240.704 107.844C240.614 107.706 240.608 107.628 240.62 107.622Z" fill="#EB996E"/>
<path d="M224.246 96.858C224.308 96.5014 224.507 96.1833 224.801 95.9724C225.095 95.7614 225.46 95.6743 225.818 95.73C225.577 95.7093 225.343 95.6332 225.136 95.5077C224.928 95.3822 224.753 95.2106 224.622 95.0063C224.492 94.8019 224.411 94.5703 224.384 94.3294C224.358 94.0885 224.387 93.8447 224.47 93.617C224.553 93.3893 224.688 93.1838 224.863 93.0164C225.038 92.8491 225.25 92.7243 225.481 92.6519C225.713 92.5795 225.957 92.5613 226.197 92.5987C226.436 92.6362 226.664 92.7284 226.862 92.868C226.389 92.4239 226.013 91.8866 225.758 91.29C225.629 90.985 225.6 90.6473 225.673 90.3244C225.746 90.0016 225.918 89.7098 226.166 89.49C226.44 89.332 226.75 89.2488 227.066 89.2488C227.382 89.2488 227.692 89.332 227.966 89.49C228.83 89.928 229.484 90.72 230.366 91.092C231.248 91.464 232.286 91.374 233.264 91.476C234.351 91.5647 235.382 91.9952 236.21 92.706C236.622 93.0605 236.946 93.5068 237.154 94.0091C237.363 94.5114 237.45 95.0557 237.41 95.598C238.736 95.52 240.188 95.598 241.214 96.42C241.136 95.8855 241.202 95.3399 241.404 94.8391C241.607 94.3384 241.939 93.9004 242.366 93.57C242.911 93.191 243.544 92.9578 244.205 92.8927C244.865 92.8275 245.531 92.9327 246.14 93.198C246.429 93.2964 246.693 93.4539 246.918 93.6605C247.142 93.8672 247.32 94.1184 247.442 94.398C247.712 95.208 247.202 96.078 246.56 96.642C245.959 97.1518 245.247 97.5134 244.481 97.6979C243.715 97.8823 242.917 97.8844 242.15 97.704C242.393 98.33 242.496 99.0019 242.45 99.672C242.384 100.83 241.454 102.03 241.046 103.116L240.956 103.83L240.26 106.8L238.4 106.65L238.91 100.41C238.91 100.41 239.258 97.788 236.978 97.878C234.698 97.968 231.464 100.338 227.096 99.42C226.379 99.3346 225.691 99.0907 225.08 98.706C224.792 98.4974 224.563 98.2171 224.417 97.8929C224.271 97.5688 224.212 97.212 224.246 96.858Z" fill="#263238"/>
<path d="M248.708 99.6C248.357 99.8689 247.945 100.046 247.508 100.116C246.447 100.357 245.336 100.227 244.36 99.7477C243.384 99.2683 242.602 98.4686 242.144 97.482C241.929 97.0923 241.816 96.6549 241.814 96.21C241.868 96.21 241.964 96.696 242.342 97.41C242.826 98.3122 243.581 99.0399 244.5 99.4909C245.419 99.9418 246.456 100.093 247.466 99.924C248.234 99.768 248.684 99.54 248.708 99.6Z" fill="#263238"/>
<path d="M244.25 103.056C244.202 103.056 244.25 102.684 244.142 102.132C243.971 101.411 243.677 100.725 243.272 100.104C242.848 99.4702 242.467 98.8087 242.132 98.124C241.976 97.8409 241.894 97.5232 241.892 97.2C242.06 97.4639 242.206 97.7408 242.33 98.028C242.6 98.532 243.062 99.18 243.53 99.942C243.96 100.591 244.243 101.326 244.358 102.096C244.428 102.419 244.39 102.756 244.25 103.056Z" fill="#263238"/>
<path d="M213.164 137.76C211.076 136.49 209.059 135.106 207.122 133.614C204.8 131.652 204.968 131.436 205.238 131.214C205.958 130.572 209.438 134.514 209.18 133.218C208.922 131.922 204.38 128.91 205.148 128.274C206.168 127.44 209.744 131.634 210.074 131.964C210.404 132.294 210.884 131.82 210.572 131.538C210.122 131.13 205.514 126.738 206.504 125.91C207.056 125.448 207.764 126.54 207.764 126.54C207.764 126.54 211.784 130.986 212.24 130.578C212.696 130.17 210.44 127.476 209.6 126.624C208.76 125.772 208.838 125.046 209.504 124.98C209.954 124.938 212.552 127.482 213.356 128.34C214.16 129.198 216.308 131.604 216.188 129.54C216.068 127.476 216.728 125.832 217.208 125.514C217.688 125.196 218.294 125.772 218.066 126.372C217.883 127.049 217.794 127.747 217.802 128.448C217.785 129.011 217.862 129.573 218.03 130.11C218.174 130.572 218.318 130.98 218.456 131.34L219.866 135.222L216.326 139.704L213.164 137.76Z" fill="#FFBE9D"/>
<path d="M248.09 124.416C248.834 124.602 253.262 126.894 253.334 136.932C253.388 144.912 252.776 162.624 247.334 165.258C244.868 166.458 241.124 166.458 237.872 164.328C228.704 158.406 212.468 139.314 212.468 139.314L219.734 131.574C219.734 131.574 238.598 150.774 239.402 150.066C240.602 148.998 238.76 139.83 239.792 130.77C240.5 124.326 243.5 123.27 248.09 124.416Z" fill="#455A64"/>
<path d="M219.722 131.85C219.686 131.899 219.644 131.944 219.596 131.982L219.206 132.366C218.864 132.696 218.36 133.188 217.724 133.848C215.913 135.718 214.249 137.724 212.744 139.848V139.71C217.868 144.936 225.344 152.538 233.642 160.992C235.602 162.856 237.993 164.206 240.602 164.922C241.831 165.264 243.122 165.321 244.376 165.09C245.569 164.826 246.677 164.267 247.598 163.464C249.279 161.924 250.509 159.956 251.156 157.77C251.73 155.864 252.116 153.907 252.308 151.926C252.794 148.326 253.052 145.326 253.166 143.304C253.226 142.284 253.256 141.504 253.28 140.952V140.352C253.272 140.284 253.272 140.216 253.28 140.148C253.289 140.218 253.289 140.288 253.28 140.358C253.28 140.508 253.28 140.712 253.28 140.958C253.28 141.498 253.28 142.29 253.226 143.316C253.148 145.362 252.926 148.326 252.464 151.962C252.285 153.96 251.909 155.936 251.342 157.86C250.693 160.095 249.449 162.111 247.742 163.692C246.787 164.53 245.635 165.114 244.394 165.39C243.096 165.631 241.761 165.573 240.488 165.222C237.825 164.5 235.384 163.127 233.384 161.226C225.056 152.76 217.64 145.104 212.552 139.866L212.486 139.8L212.54 139.728C214.066 137.61 215.759 135.617 217.604 133.77C218.258 133.128 218.804 132.648 219.134 132.324L219.542 131.97L219.722 131.85Z" fill="#263238"/>
<path d="M219.728 131.574C219.728 131.574 219.77 131.574 219.83 131.658L220.112 131.94L221.186 133.026C222.116 133.974 223.478 135.33 225.188 136.992C226.898 138.654 228.962 140.634 231.29 142.806L234.962 146.208C236.252 147.372 237.584 148.608 239.012 149.772L238.766 149.892C238.808 149.184 238.85 148.434 238.892 147.678C239.132 143.712 239.354 139.932 239.558 136.494C239.684 134.778 239.714 133.14 239.9 131.61C240.038 130.179 240.433 128.785 241.064 127.494C241.587 126.421 242.382 125.503 243.368 124.83C244.122 124.336 244.989 124.041 245.888 123.972C246.452 123.925 247.02 123.995 247.556 124.176C247.744 124.231 247.924 124.312 248.09 124.416C248.09 124.416 247.904 124.338 247.538 124.236C247.004 124.084 246.446 124.035 245.894 124.092C245.024 124.182 244.189 124.485 243.464 124.974C242.52 125.649 241.76 126.551 241.256 127.596C240.655 128.869 240.281 130.238 240.152 131.64C239.984 133.152 239.966 134.79 239.846 136.506L239.204 147.69C239.162 148.446 239.114 149.202 239.078 149.904V150.21L238.844 150.024C237.38 148.824 236.072 147.624 234.782 146.424C233.492 145.224 232.28 144.096 231.116 143.004C228.8 140.814 226.748 138.804 225.056 137.142C223.364 135.48 222.026 134.07 221.12 133.098C220.658 132.618 220.322 132.234 220.088 131.97L219.83 131.676C219.752 131.61 219.722 131.574 219.728 131.574Z" fill="#263238"/>
<path d="M215.672 142.518C215.931 142.058 216.239 141.628 216.59 141.234C217.19 140.472 218.042 139.434 219.02 138.312C219.998 137.19 220.904 136.2 221.576 135.498C221.92 135.097 222.304 134.734 222.722 134.412C222.435 134.855 222.105 135.269 221.738 135.648L219.254 138.516L216.758 141.378C216.433 141.791 216.069 142.173 215.672 142.518Z" fill="#263238"/>
<path d="M240.65 154.398C240.279 153.664 239.974 152.899 239.738 152.112C239.399 151.363 239.126 150.586 238.922 149.79C239.812 151.189 240.4 152.759 240.65 154.398Z" fill="#263238"/>
<path d="M242.3 153.12C241.594 152.685 240.944 152.163 240.368 151.566C239.723 151.038 239.145 150.433 238.646 149.766C240.002 150.724 241.23 151.851 242.3 153.12Z" fill="#263238"/>
<path d="M62.588 242.502L43.316 259.896L38.036 253.14L54.926 232.218L62.588 242.502Z" fill="#FFBE9D"/>
<path d="M43.76 260.55L44.42 259.95L38.336 252.48L35.594 254.88L35.96 255.348C37.598 257.43 44.444 265.818 46.016 266.79C47.768 267.87 43.76 260.55 43.76 260.55Z" fill="#FF7235"/>
<g opacity="0.5">
<path d="M37.952 257.436C38.4657 256.796 38.7224 255.987 38.672 255.168C38.6357 254.358 38.2925 253.592 37.712 253.026L35.702 254.826L37.952 257.436Z" fill="white"/>
</g>
<path opacity="0.5" d="M45.614 264.222C45.614 264.222 46.886 266.91 46.292 266.952C45.698 266.994 38.492 258.78 35.594 254.88L35.768 254.748L44.126 264.402C44.126 264.402 45.224 263.82 45.614 264.222Z" fill="white"/>
<path d="M35.672 254.634C35.6991 254.681 35.7313 254.726 35.768 254.766L36.056 255.144L37.154 256.5C38.084 257.64 39.398 259.194 40.88 260.88C42.362 262.566 43.742 264.066 44.756 265.14L45.956 266.4L46.286 266.736C46.3238 266.778 46.366 266.817 46.412 266.85L46.304 266.718L45.986 266.37C45.668 266.016 45.272 265.59 44.786 265.086C43.79 264 42.422 262.494 40.94 260.808C39.458 259.122 38.138 257.574 37.184 256.446L36.062 255.114L35.756 254.754C35.7324 254.711 35.7042 254.671 35.672 254.634Z" fill="#263238"/>
<path d="M44.012 264.498C44.2785 264.362 44.5606 264.26 44.852 264.192C45.149 264.158 45.4489 264.158 45.746 264.192C45.4676 264.04 45.1423 263.997 44.834 264.072C44.5169 264.108 44.2242 264.26 44.012 264.498Z" fill="#263238"/>
<path d="M43.22 261.426C43.3758 261.463 43.5381 261.463 43.694 261.426C43.952 261.39 44.156 261.33 44.15 261.294C43.8324 261.267 43.5131 261.319 43.22 261.444V261.426Z" fill="#263238"/>
<path d="M43.016 260.574C43.016 260.574 43.184 260.652 43.406 260.676C43.628 260.7 43.808 260.676 43.814 260.676C43.82 260.676 43.64 260.598 43.418 260.574C43.196 260.55 43.016 260.538 43.016 260.574Z" fill="#263238"/>
<path d="M43.37 259.608C43.37 259.608 43.472 259.812 43.652 260.022C43.832 260.232 44 260.388 44.024 260.364C44.048 260.34 43.922 260.16 43.736 259.95C43.55 259.74 43.394 259.584 43.37 259.608Z" fill="#263238"/>
<path d="M43.736 259.056C43.7601 259.254 43.8462 259.438 43.982 259.584C44.18 259.842 44.402 259.992 44.42 259.968C44.438 259.944 44.258 259.764 44.078 259.512C43.9762 259.351 43.8618 259.199 43.736 259.056Z" fill="#263238"/>
<path d="M44.06 261.12C44.1701 261.295 44.3103 261.45 44.474 261.576C44.6398 261.726 44.8208 261.859 45.014 261.972C45.1265 262.05 45.2498 262.11 45.38 262.152C45.4573 262.182 45.5427 262.182 45.62 262.152C45.6617 262.13 45.696 262.096 45.7184 262.054C45.7408 262.012 45.7504 261.965 45.746 261.918C45.6995 261.756 45.618 261.607 45.5072 261.48C45.3964 261.354 45.2591 261.253 45.1051 261.185C44.951 261.118 44.784 261.085 44.6158 261.089C44.4476 261.094 44.2825 261.135 44.132 261.21C44.0796 261.234 44.0326 261.269 43.994 261.312C44.1833 261.228 44.387 261.181 44.594 261.174C44.806 261.172 45.0142 261.23 45.194 261.342C45.305 261.406 45.4016 261.493 45.478 261.596C45.5543 261.699 45.6088 261.817 45.638 261.942C45.638 262.062 45.542 262.11 45.422 262.074C45.3036 262.03 45.1892 261.976 45.08 261.912C44.8894 261.803 44.7069 261.681 44.534 261.546C44.228 261.282 44.078 261.102 44.06 261.12Z" fill="#263238"/>
<path d="M44.144 261.258C44.29 261.23 44.4205 261.149 44.51 261.03C44.6198 260.909 44.6981 260.763 44.738 260.604C44.776 260.504 44.7867 260.396 44.7687 260.29C44.7508 260.185 44.705 260.086 44.636 260.004C44.5836 259.967 44.519 259.951 44.4555 259.96C44.3919 259.969 44.3342 260.002 44.294 260.052C44.2308 260.128 44.1839 260.215 44.156 260.31C44.1079 260.462 44.0797 260.619 44.072 260.778C44.0492 260.921 44.0637 261.068 44.114 261.204C44.1361 261.065 44.1481 260.925 44.15 260.784C44.1731 260.635 44.2092 260.489 44.258 260.346C44.3 260.196 44.438 259.998 44.564 260.094C44.6088 260.165 44.6383 260.244 44.6507 260.326C44.6631 260.409 44.6581 260.493 44.636 260.574C44.6035 260.718 44.5401 260.853 44.45 260.97C44.3562 261.074 44.2539 261.171 44.144 261.258Z" fill="#263238"/>
<path d="M37.766 253.044C37.766 253.044 37.97 253.23 38.216 253.59C38.5407 254.057 38.7297 254.606 38.762 255.174C38.783 255.741 38.6503 256.303 38.378 256.8C38.162 257.178 37.964 257.4 37.982 257.4C38 257.4 38.042 257.364 38.126 257.274C38.2474 257.146 38.3541 257.005 38.444 256.854C38.7535 256.352 38.9041 255.769 38.876 255.18C38.8425 254.59 38.6335 254.024 38.276 253.554C38.171 253.413 38.0502 253.284 37.916 253.17C37.832 253.074 37.772 253.038 37.766 253.044Z" fill="#263238"/>
<path d="M39.4399 257.73C39.6678 258.142 39.9482 258.524 40.2739 258.864C40.5719 259.232 40.9168 259.558 41.2999 259.836C41.2999 259.836 40.8799 259.368 40.3699 258.786C39.8599 258.204 39.4999 257.712 39.4399 257.73Z" fill="#263238"/>
<path d="M38.21 256.314C38.174 256.314 38.144 256.44 38.078 256.578C38.012 256.716 37.94 256.836 37.964 256.86C37.988 256.884 38.108 256.794 38.186 256.626C38.264 256.458 38.24 256.314 38.21 256.314Z" fill="#263238"/>
<path d="M38.402 255.198C38.372 255.198 38.336 255.306 38.324 255.45C38.312 255.594 38.324 255.708 38.366 255.708C38.408 255.708 38.432 255.6 38.444 255.456C38.456 255.312 38.432 255.198 38.402 255.198Z" fill="#263238"/>
<path d="M38.036 254.172C38.036 254.172 38.102 254.292 38.156 254.43C38.21 254.568 38.222 254.694 38.258 254.7C38.294 254.706 38.336 254.556 38.258 254.388C38.18 254.22 38.048 254.142 38.036 254.172Z" fill="#263238"/>
<path d="M37.7 253.506C37.7 253.506 37.7 253.59 37.7 253.668C37.7 253.746 37.778 253.806 37.808 253.794C37.838 253.782 37.808 253.71 37.808 253.626C37.808 253.542 37.73 253.494 37.7 253.506Z" fill="#263238"/>
<path d="M96.866 242.322L99.188 268.596H89.258L84.8781 242.322H96.866Z" fill="#FFBE9D"/>
<path d="M98.8999 268.842V267.96L89.2579 267.918L89.3719 271.56H89.9719C92.6239 271.608 103.448 271.632 105.194 271.032C107.078 270.384 98.8999 268.842 98.8999 268.842Z" fill="#FF7235"/>
<g opacity="0.5">
<path d="M92.7801 271.356C92.6107 270.552 92.1488 269.84 91.484 269.358C90.8311 268.883 90.0245 268.669 89.222 268.758L89.318 271.44L92.7801 271.356Z" fill="white"/>
</g>
<path opacity="0.5" d="M102.89 269.736C102.89 269.736 105.77 270.456 105.434 270.936C105.098 271.416 94.154 271.806 89.312 271.536V271.32L102.08 270.978C102.08 270.978 102.332 269.784 102.89 269.736Z" fill="white"/>
<path d="M89.168 271.344H89.336H89.81H91.55C93.026 271.344 95.06 271.344 97.304 271.242C99.548 271.14 101.582 271.05 103.052 270.948L104.792 270.816L105.266 270.768H104.792L103.046 270.864C101.576 270.948 99.548 271.05 97.304 271.128C95.06 271.206 93.026 271.242 91.55 271.26H89.81H89.336L89.168 271.344Z" fill="#263238"/>
<path d="M102.086 271.152C102.152 270.86 102.251 270.576 102.38 270.306C102.553 270.056 102.754 269.826 102.98 269.622C102.684 269.738 102.443 269.964 102.308 270.252C102.126 270.514 102.046 270.835 102.086 271.152Z" fill="#263238"/>
<path d="M99.2059 269.814C99.2359 269.814 99.3679 269.664 99.4999 269.436C99.6319 269.208 99.7159 269.016 99.6859 268.998C99.5636 269.104 99.4654 269.235 99.3979 269.382C99.3035 269.51 99.238 269.658 99.2059 269.814Z" fill="#263238"/>
<path d="M98.42 269.436C98.42 269.436 98.588 269.352 98.75 269.196C98.912 269.04 99.02 268.896 98.996 268.878C98.972 268.86 98.828 268.956 98.666 269.112C98.504 269.268 98.396 269.4 98.42 269.436Z" fill="#263238"/>
<path d="M97.8979 268.548C98.0584 268.601 98.2289 268.615 98.396 268.59C98.5667 268.604 98.7386 268.582 98.8999 268.524C98.738 268.469 98.5654 268.452 98.396 268.476C98.12 268.482 97.8979 268.512 97.8979 268.548Z" fill="#263238"/>
<path d="M97.7 267.912C97.8685 268.017 98.0656 268.068 98.264 268.056C98.4691 268.089 98.6795 268.056 98.864 267.96C98.6765 267.94 98.4874 267.94 98.3 267.96C98.1017 267.927 97.901 267.911 97.7 267.912Z" fill="#263238"/>
<path d="M99.5 268.968C99.6985 269.003 99.9015 269.003 100.1 268.968C100.323 268.932 100.541 268.876 100.754 268.8C100.882 268.758 101.005 268.702 101.12 268.632C101.193 268.587 101.246 268.516 101.27 268.434C101.277 268.388 101.271 268.342 101.253 268.299C101.235 268.257 101.206 268.22 101.168 268.194C100.929 268.085 100.66 268.063 100.407 268.132C100.153 268.201 99.9323 268.357 99.782 268.572C99.6899 268.697 99.6264 268.84 99.596 268.992C99.5817 269.045 99.5817 269.101 99.596 269.154C99.6567 268.964 99.7457 268.784 99.86 268.62C99.993 268.455 100.17 268.33 100.37 268.26C100.487 268.211 100.612 268.186 100.739 268.186C100.866 268.186 100.991 268.211 101.108 268.26C101.21 268.332 101.174 268.446 101.066 268.518C100.959 268.58 100.846 268.632 100.73 268.674C100.526 268.753 100.315 268.816 100.1 268.86C99.74 268.938 99.5 268.95 99.5 268.968Z" fill="#263238"/>
<path d="M99.668 268.992C99.7348 268.861 99.7539 268.71 99.7219 268.566C99.6984 268.405 99.6344 268.252 99.536 268.122C99.4831 268.03 99.407 267.954 99.3153 267.902C99.2236 267.849 99.1197 267.822 99.014 267.822C98.9522 267.839 98.8993 267.879 98.8658 267.933C98.8324 267.988 98.821 268.053 98.834 268.116C98.849 268.214 98.8882 268.307 98.948 268.386C99.0329 268.52 99.1358 268.641 99.254 268.746C99.3513 268.856 99.4753 268.938 99.614 268.986C99.614 268.986 99.4879 268.878 99.3079 268.692C99.2084 268.579 99.1182 268.459 99.0379 268.332C98.9479 268.2 98.8819 267.972 99.0379 267.936C99.1939 267.9 99.356 268.068 99.452 268.182C99.5429 268.298 99.6065 268.434 99.6379 268.578C99.6591 268.715 99.6691 268.853 99.668 268.992Z" fill="#263238"/>
<path d="M89.3 268.716C89.3 268.716 89.576 268.68 90.008 268.716C90.576 268.765 91.1187 268.973 91.574 269.316C92.0275 269.656 92.3784 270.115 92.588 270.642C92.75 271.05 92.774 271.326 92.7981 271.32C92.8073 271.256 92.8073 271.192 92.7981 271.128C92.7721 270.954 92.7299 270.784 92.672 270.618C92.4813 270.06 92.1257 269.572 91.652 269.22C91.1758 268.874 90.6082 268.676 90.02 268.65C89.8444 268.635 89.6677 268.635 89.4921 268.65C89.4248 268.661 89.3598 268.683 89.3 268.716Z" fill="#263238"/>
<path d="M93.9559 270.39C94.4184 270.478 94.8906 270.505 95.3599 270.468C95.8312 270.471 96.3009 270.415 96.7579 270.3C96.7579 270.264 96.1279 270.33 95.3539 270.354C94.5799 270.378 93.9559 270.36 93.9559 270.39Z" fill="#263238"/>
<path d="M92.078 270.444C92.078 270.444 92.132 270.576 92.204 270.714C92.276 270.852 92.312 270.984 92.342 270.984C92.372 270.984 92.39 270.828 92.306 270.666C92.222 270.504 92.096 270.42 92.078 270.444Z" fill="#263238"/>
<path d="M91.34 269.592C91.34 269.592 91.382 269.712 91.484 269.808C91.586 269.904 91.688 269.964 91.712 269.94C91.736 269.916 91.67 269.82 91.562 269.724C91.454 269.628 91.358 269.568 91.34 269.592Z" fill="#263238"/>
<path d="M90.314 269.22C90.314 269.256 90.446 269.25 90.59 269.292C90.734 269.334 90.836 269.412 90.86 269.388C90.884 269.364 90.8 269.232 90.62 269.184C90.44 269.136 90.302 269.196 90.314 269.22Z" fill="#263238"/>
<path d="M89.582 269.058C89.582 269.088 89.63 269.136 89.708 269.166C89.786 269.196 89.864 269.166 89.876 269.166C89.888 269.166 89.828 269.088 89.75 269.058C89.672 269.028 89.594 269.028 89.582 269.058Z" fill="#263238"/>
<path d="M79.4121 165.21C79.4121 165.21 87.182 216.81 86.054 219.324C84.926 221.838 59.7561 247.584 59.7561 247.584L50.3 231.408C50.3 231.408 66.956 212.958 66.716 212.004C66.476 211.05 54.716 161.058 54.716 161.058L79.4121 165.21Z" fill="#263238"/>
<path d="M82.178 184.266C82.1 183.714 75.83 169.62 75.83 169.62L78.872 165.324L79.412 165.21L82.178 184.266Z" fill="#263238"/>
<path d="M50.2999 160.35L49.8259 162.264C48.4533 167.912 49.313 173.872 52.2259 178.902L73.2739 215.4C74.7694 217.986 75.8581 220.787 76.5019 223.704L81.7519 247.32H99.0319C99.0319 247.32 96.896 231.12 94.9939 219.306C93.554 210.384 81.6139 182.706 75.83 169.602L79.4299 165.192L73.2079 164.154L50.2999 160.35Z" fill="#263238"/>
<path d="M76.286 169.518C76.5272 170.307 76.8219 171.079 77.168 171.828C77.768 173.238 78.536 175.188 79.376 177.354C80.216 179.52 80.954 181.5 81.482 182.928C81.7356 183.713 82.0402 184.481 82.394 185.226C82.3722 185.002 82.3218 184.783 82.244 184.572C82.13 184.164 81.95 183.57 81.716 182.844C81.242 181.392 80.516 179.406 79.7 177.228C78.884 175.05 78.026 173.118 77.39 171.732C77.072 171.036 76.79 170.478 76.616 170.1C76.5324 169.892 76.4214 169.696 76.286 169.518Z" fill="#455A64"/>
<path d="M78.176 230.874C78.1894 230.738 78.1894 230.602 78.176 230.466C78.14 230.16 78.098 229.776 78.044 229.296C77.9843 228.678 77.8922 228.063 77.768 227.454C77.63 226.746 77.498 225.924 77.264 225.054C77.156 224.61 77.042 224.142 76.922 223.662C76.802 223.182 76.634 222.684 76.478 222.168C76.19 221.13 75.782 220.056 75.386 218.916C74.4452 216.46 73.3737 214.057 72.176 211.716C69.9579 207.506 67.5019 203.425 64.82 199.494C63.806 197.982 62.966 196.764 62.378 195.93L61.7 195C61.6238 194.886 61.5375 194.78 61.442 194.682C61.4938 194.809 61.5602 194.93 61.64 195.042L62.27 196.032C62.87 196.926 63.65 198.15 64.622 199.632C66.596 202.692 69.32 206.94 71.876 211.872C73.0565 214.193 74.1198 216.572 75.062 219C75.464 220.128 75.884 221.196 76.184 222.222C76.34 222.732 76.502 223.224 76.64 223.704C76.778 224.184 76.886 224.64 77 225.084C77.252 225.96 77.396 226.77 77.552 227.484C77.708 228.198 77.816 228.804 77.888 229.284C77.96 229.764 78.032 230.142 78.086 230.442C78.0994 230.589 78.1296 230.734 78.176 230.874Z" fill="#455A64"/>
<path d="M53.138 177.18C53.138 177.18 53.09 177.126 53.006 177L52.64 176.4C52.9284 175.947 53.3058 175.557 53.7492 175.254C54.1927 174.95 54.693 174.74 55.22 174.636C56.008 174.459 56.8228 174.434 57.62 174.564C58.5562 174.728 59.4758 174.975 60.368 175.302C61.3987 175.62 62.402 176.022 63.368 176.502C64.4706 177.051 65.3378 177.98 65.81 179.118C66.0457 179.739 66.0855 180.418 65.924 181.062C65.7271 181.686 65.4678 182.289 65.15 182.862C64.8255 183.42 64.6499 184.052 64.64 184.698C64.6924 185.349 64.9906 185.956 65.474 186.396C66.626 187.542 68.33 187.752 69.74 188.466C71.1161 189.162 72.2374 190.275 72.944 191.646C73.6074 192.865 73.919 194.244 73.844 195.63C73.7731 196.838 73.3839 198.005 72.716 199.014C71.7622 200.479 70.338 201.575 68.678 202.122C68.2309 202.263 67.7705 202.357 67.304 202.404C67.1422 202.416 66.9798 202.416 66.818 202.404C67.4287 202.315 68.0309 202.174 68.618 201.984C70.2227 201.408 71.5903 200.314 72.506 198.876C73.1387 197.895 73.5029 196.766 73.562 195.6C73.6184 194.263 73.3093 192.935 72.668 191.76C71.9799 190.449 70.8996 189.385 69.578 188.718C68.9 188.382 68.138 188.154 67.376 187.866C66.5775 187.603 65.8449 187.171 65.228 186.6C64.6886 186.105 64.3582 185.422 64.304 184.692C64.3148 183.994 64.5026 183.311 64.85 182.706C65.1614 182.149 65.4167 181.562 65.612 180.954C65.7602 180.367 65.7225 179.749 65.504 179.184C65.0652 178.108 64.2508 177.227 63.212 176.706C62.2625 176.218 61.2754 175.806 60.26 175.476C59.3876 175.14 58.4857 174.887 57.566 174.72C56.7974 174.579 56.0087 174.589 55.244 174.75C54.7324 174.844 54.2443 175.039 53.8078 175.322C53.3713 175.605 52.9949 175.971 52.7 176.4L53.03 177C53.0727 177.056 53.1089 177.116 53.138 177.18Z" fill="#FAFAFA"/>
<path d="M96.7639 230.94C96.3399 230.568 95.8601 230.264 95.3419 230.04C94.7239 229.797 94.0794 229.628 93.4219 229.536C92.6599 229.41 91.7719 229.332 90.7999 229.176C89.7228 229.022 88.6834 228.67 87.7339 228.138C85.9165 227.121 84.5304 225.479 83.8339 223.516C83.1374 221.554 83.178 219.405 83.9479 217.47C84.5179 216.06 85.3759 214.836 85.6159 213.474C85.768 212.141 85.5737 210.792 85.0519 209.556C84.5957 208.41 84.207 207.238 83.8879 206.046C83.6292 204.984 83.6292 203.874 83.8879 202.812C84.264 201.274 85.132 199.9 86.3599 198.9C86.7989 198.528 87.298 198.234 87.8359 198.03C87.3462 198.314 86.8788 198.635 86.4379 198.99C85.2722 200.002 84.4554 201.357 84.1039 202.86C83.8552 203.889 83.8552 204.963 84.1039 205.992C84.4377 207.17 84.8384 208.328 85.3039 209.46C85.8524 210.739 86.0592 212.139 85.9039 213.522C85.6519 214.98 84.7699 216.222 84.2299 217.59C83.486 219.455 83.4405 221.526 84.1019 223.423C84.7634 225.319 86.0872 226.912 87.8299 227.91C88.7574 228.44 89.7742 228.796 90.8299 228.96C91.7899 229.128 92.6779 229.218 93.4459 229.362C94.1144 229.48 94.7655 229.682 95.3839 229.962C95.7733 230.137 96.1351 230.367 96.4579 230.646C96.6679 230.82 96.7759 230.928 96.7639 230.94Z" fill="#FAFAFA"/>
<path d="M88.6999 248.154C88.6399 248.154 88.622 247.374 88.31 246.168C88.1268 245.463 87.8756 244.778 87.56 244.122C87.1654 243.323 86.6889 242.567 86.1379 241.866C85.5737 241.175 84.9382 240.546 84.242 239.988C83.6699 239.53 83.0551 239.128 82.4059 238.788C81.2959 238.224 80.5339 238.038 80.5519 237.978C80.7365 237.98 80.9193 238.015 81.092 238.08C81.2965 238.126 81.4971 238.188 81.692 238.266C81.9628 238.356 82.2273 238.465 82.4839 238.59C83.1633 238.902 83.807 239.286 84.4039 239.736C85.8693 240.845 87.0363 242.301 87.7999 243.972C88.1111 244.651 88.3485 245.361 88.5079 246.09C88.5748 246.368 88.6229 246.651 88.6519 246.936C88.6863 247.148 88.7023 247.363 88.6999 247.578C88.7335 247.769 88.7335 247.963 88.6999 248.154Z" fill="#FAFAFA"/>
<path d="M79.832 180.282C79.832 180.282 79.754 180.282 79.598 180.33C79.3692 180.362 79.1389 180.382 78.908 180.39C78.0595 180.418 77.2112 180.327 76.388 180.12C75.1591 179.824 73.9956 179.303 72.956 178.584C71.6604 177.718 70.5951 176.55 69.8518 175.181C69.1086 173.812 68.7098 172.282 68.69 170.724C68.6617 169.46 68.865 168.201 69.29 167.01C69.5681 166.207 69.9557 165.445 70.442 164.748C70.5701 164.559 70.7104 164.379 70.862 164.208C70.964 164.088 71.024 164.028 71.03 164.034C70.391 164.98 69.8768 166.004 69.5 167.082C69.1199 168.255 68.9493 169.486 68.996 170.718C69.0281 172.224 69.4167 173.701 70.1301 175.028C70.8435 176.354 71.8613 177.493 73.1 178.35C74.1062 179.06 75.2293 179.588 76.418 179.91C77.5347 180.184 78.6826 180.309 79.832 180.282Z" fill="#FAFAFA"/>
<path d="M64.4479 213.948C64.5641 213.988 64.6765 214.038 64.7839 214.098C65.0059 214.2 65.3179 214.374 65.7139 214.608C66.835 215.288 67.8281 216.159 68.6479 217.182C69.2143 217.9 69.6491 218.712 69.9319 219.582C70.246 220.589 70.316 221.656 70.1359 222.696C69.9563 223.862 69.3999 224.936 68.5519 225.756C67.6639 226.62 66.3619 226.908 65.6059 227.856C64.8499 228.804 64.6819 230.046 64.5679 231.204C64.5313 232.355 64.3293 233.495 63.9679 234.588C63.5611 235.576 62.8199 236.389 61.8739 236.886C61.0699 237.325 60.1828 237.591 59.2699 237.666C57.9619 237.738 56.6506 237.608 55.3819 237.282C54.9319 237.174 54.5899 237.084 54.3559 237.018C54.2356 236.995 54.1186 236.957 54.0079 236.904C54.1314 236.91 54.254 236.928 54.3739 236.958L55.4059 237.162C56.6657 237.44 57.959 237.535 59.2459 237.444C60.1229 237.359 60.9728 237.094 61.7419 236.664C62.629 236.185 63.3224 235.413 63.7039 234.48C64.0415 233.409 64.2293 232.296 64.2619 231.174C64.306 230.568 64.3983 229.966 64.5379 229.374C64.6788 228.746 64.9621 228.159 65.3659 227.658C66.2299 226.62 67.5379 226.338 68.3659 225.534C69.1679 224.763 69.6966 223.752 69.8719 222.654C70.05 221.655 69.9924 220.627 69.7039 219.654C69.4398 218.813 69.034 218.024 68.5039 217.32C67.7116 216.302 66.7568 215.423 65.6779 214.716C65.2999 214.464 64.9939 214.278 64.7839 214.158C64.6637 214.102 64.5508 214.032 64.4479 213.948Z" fill="#FAFAFA"/>
<path d="M66.29 89.796C62.96 88.968 59.378 91.05 57.722 94.05C56.066 97.05 56.048 100.728 56.828 104.064C57.158 105.462 57.62 106.908 57.296 108.312C56.948 109.818 55.748 110.988 55.172 112.428C54.074 115.206 55.472 118.284 56.84 120.936C57.44 122.136 58.262 123.486 59.594 123.75C61.088 124.044 62.402 122.85 63.662 121.992C65.8861 120.491 68.593 119.881 71.246 120.282C74.246 120.744 76.958 122.466 79.97 122.52C81.3342 122.53 82.6791 122.197 83.8814 121.552C85.0838 120.908 86.1051 119.972 86.852 118.83C87.746 117.432 88.052 115.326 86.762 114.294C85.91 113.616 84.608 113.64 83.858 112.848C82.946 111.882 83.342 110.328 83.81 109.092C84.278 107.856 84.746 106.344 83.912 105.312C82.982 104.148 80.966 104.37 80.078 103.176C79.19 101.982 80.126 100.176 80.078 98.592C80.019 97.8944 79.8033 97.2192 79.447 96.6166C79.0906 96.0141 78.6028 95.4997 78.02 95.112C76.892 94.29 76.736 94.026 75.182 91.2" fill="#263238"/>
<path d="M61.6461 117.234L73.646 118.26C73.646 118.26 82.388 116.982 85.736 139.152L99.02 138.606L99.62 147.438L81.35 148.338L79.196 147.048L79.412 165.21L49.19 162.984C49.874 158.862 53.096 153.438 54.176 149.958C53.078 147.21 47.0061 136.008 46.7061 130.254C45.8901 114.498 61.6461 117.234 61.6461 117.234Z" fill="#FF7235"/>
<path opacity="0.3" d="M80.546 133.488C80.546 133.488 82.67 135.888 82.706 137.91C82.76 141.15 81.944 142.812 82.958 146.352L80.066 147.048C80.066 147.048 79.622 146.184 80 144.336C80.378 142.488 81.11 140.238 81.434 138.228C81.7216 136.593 81.4061 134.908 80.546 133.488Z" fill="black"/>
<path d="M80.066 147.048C79.9774 146.82 79.9169 146.582 79.886 146.34C79.8008 145.679 79.8008 145.009 79.886 144.348C80.0143 143.376 80.2148 142.416 80.486 141.474C80.827 140.337 81.0916 139.178 81.278 138.006C81.4559 136.846 81.3298 135.659 80.912 134.562C80.5288 133.684 80.006 132.873 79.364 132.162C78.272 130.92 77.498 130.23 77.564 130.188C77.7687 130.318 77.9596 130.469 78.134 130.638C78.6338 131.071 79.1086 131.531 79.556 132.018C80.2426 132.735 80.8008 133.565 81.206 134.472C81.6608 135.614 81.7996 136.858 81.608 138.072C81.4253 139.26 81.1505 140.431 80.786 141.576C80.502 142.503 80.2756 143.447 80.108 144.402C80.0072 145.047 79.973 145.7 80.006 146.352C80.0501 146.581 80.0702 146.815 80.066 147.048Z" fill="#263238"/>
<g opacity="0.2">
<path d="M80.462 146.82L71.51 147.024C70.8005 147.091 70.0848 147.007 69.41 146.778C68.468 146.382 67.862 145.464 67.334 144.588C65.762 141.996 64.322 139.332 63.014 136.596C63.014 136.596 65.378 144.114 66.86 147.396C67.004 147.81 67.3016 148.153 67.6914 148.354C68.0811 148.555 68.5331 148.599 68.954 148.476C72.8499 148.483 76.7262 147.925 80.462 146.82Z" fill="black"/>
</g>
<path d="M138.986 127.02C140.306 126.926 141.628 127.172 142.826 127.734C143.336 127.983 143.896 128.114 144.464 128.118H145.928V109.308C145.928 108.928 145.853 108.553 145.708 108.202C145.562 107.852 145.349 107.533 145.081 107.265C144.812 106.997 144.493 106.785 144.142 106.64C143.791 106.495 143.416 106.421 143.036 106.422H124.304V105.15C124.31 104.56 124.45 103.98 124.712 103.452C125.425 101.989 125.656 100.338 125.372 98.736C125.039 96.8099 123.995 95.0791 122.447 93.8861C120.899 92.693 118.959 92.1248 117.012 92.2938C115.064 92.4628 113.251 93.3567 111.932 94.7986C110.612 96.2406 109.882 98.1254 109.886 100.08C109.886 101.161 110.113 102.23 110.552 103.218C110.774 103.713 110.893 104.248 110.9 104.79V106.422H92.63C91.8646 106.422 91.1305 106.726 90.5893 107.267C90.0481 107.808 89.744 108.543 89.744 109.308V160.122C89.744 160.431 89.8049 160.737 89.923 161.022C90.0412 161.307 90.2145 161.567 90.4329 161.785C90.6513 162.003 90.9106 162.177 91.1959 162.295C91.4813 162.413 91.7871 162.474 92.096 162.474H143.576C144.199 162.472 144.797 162.224 145.237 161.783C145.678 161.343 145.926 160.745 145.928 160.122V141.756H143.846C143.365 141.757 142.888 141.85 142.442 142.032C141.52 142.408 140.534 142.602 139.538 142.602C137.469 142.675 135.456 141.924 133.942 140.513C132.427 139.102 131.535 137.147 131.462 135.078C131.389 133.009 132.14 130.996 133.551 129.482C134.962 127.967 136.917 127.075 138.986 127.002V127.02Z" fill="#FF7235"/>
<path opacity="0.2" d="M138.986 127.02C140.306 126.926 141.628 127.172 142.826 127.734C143.336 127.983 143.896 128.114 144.464 128.118H145.928V109.308C145.928 108.928 145.853 108.553 145.708 108.202C145.562 107.852 145.349 107.533 145.081 107.265C144.812 106.997 144.493 106.785 144.142 106.64C143.791 106.495 143.416 106.421 143.036 106.422H124.304V105.15C124.31 104.56 124.45 103.98 124.712 103.452C125.425 101.989 125.656 100.338 125.372 98.736C125.039 96.8099 123.995 95.0791 122.447 93.8861C120.899 92.693 118.959 92.1248 117.012 92.2938C115.064 92.4628 113.251 93.3567 111.932 94.7986C110.612 96.2406 109.882 98.1254 109.886 100.08C109.886 101.161 110.113 102.23 110.552 103.218C110.774 103.713 110.893 104.248 110.9 104.79V106.422H92.63C91.8646 106.422 91.1305 106.726 90.5893 107.267C90.0481 107.808 89.744 108.543 89.744 109.308V160.122C89.744 160.431 89.8049 160.737 89.923 161.022C90.0412 161.307 90.2145 161.567 90.4329 161.785C90.6513 162.003 90.9106 162.177 91.1959 162.295C91.4813 162.413 91.7871 162.474 92.096 162.474H143.576C144.199 162.472 144.797 162.224 145.237 161.783C145.678 161.343 145.926 160.745 145.928 160.122V141.756H143.846C143.365 141.757 142.888 141.85 142.442 142.032C141.52 142.408 140.534 142.602 139.538 142.602C137.469 142.675 135.456 141.924 133.942 140.513C132.427 139.102 131.535 137.147 131.462 135.078C131.389 133.009 132.14 130.996 133.551 129.482C134.962 127.967 136.917 127.075 138.986 127.002V127.02Z" fill="white"/>
<path d="M61.484 117.654L60.554 96.474L68.954 90.102L76.598 93.84C76.598 93.84 76.856 103.44 76.598 107.604C76.34 111.768 72.146 112.212 72.146 112.212C72.146 112.212 72.248 114.648 72.344 117.21C72.3716 117.946 72.2497 118.679 71.9855 119.367C71.7214 120.054 71.3206 120.68 70.8074 121.208C70.2942 121.736 69.6792 122.154 68.9996 122.437C68.3201 122.721 67.5901 122.863 66.854 122.856C65.4638 122.839 64.1328 122.29 63.1342 121.323C62.1356 120.356 61.5452 119.043 61.484 117.654Z" fill="#FFBE9D"/>
<path d="M75.782 100.836C75.782 100.942 75.7507 101.045 75.692 101.133C75.6333 101.22 75.5499 101.289 75.4523 101.329C75.3548 101.37 75.2474 101.38 75.1438 101.36C75.0402 101.339 74.9451 101.288 74.8704 101.214C74.7957 101.139 74.7449 101.044 74.7243 100.94C74.7036 100.837 74.7142 100.729 74.7546 100.632C74.7951 100.534 74.8635 100.451 74.9513 100.392C75.0391 100.333 75.1424 100.302 75.248 100.302C75.3896 100.302 75.5254 100.358 75.6256 100.458C75.7257 100.559 75.782 100.694 75.782 100.836Z" fill="#263238"/>
<path d="M76.298 100.254C76.226 100.326 75.836 99.99 75.26 99.96C74.684 99.93 74.258 100.206 74.198 100.128C74.138 100.05 74.24 99.966 74.426 99.84C74.6785 99.6737 74.9782 99.5937 75.28 99.6121C75.5818 99.6305 75.8695 99.7462 76.1 99.942C76.274 100.092 76.328 100.2 76.298 100.254Z" fill="#263238"/>
<path d="M69.608 100.836C69.608 100.942 69.5767 101.045 69.518 101.133C69.4594 101.22 69.376 101.289 69.2784 101.329C69.1808 101.37 69.0734 101.38 68.9699 101.36C68.8663 101.339 68.7711 101.288 68.6964 101.214C68.6218 101.139 68.5709 101.044 68.5503 100.94C68.5297 100.837 68.5403 100.729 68.5807 100.632C68.6211 100.534 68.6895 100.451 68.7774 100.392C68.8652 100.333 68.9684 100.302 69.074 100.302C69.2157 100.302 69.3515 100.358 69.4516 100.458C69.5518 100.559 69.608 100.694 69.608 100.836Z" fill="#263238"/>
<path d="M69.938 100.254C69.866 100.326 69.476 99.99 68.9 99.96C68.324 99.93 67.898 100.206 67.838 100.128C67.778 100.05 67.88 99.966 68.066 99.84C68.3117 99.6739 68.6036 99.5899 68.9 99.6C69.2021 99.6197 69.4901 99.7353 69.722 99.93C69.914 100.092 69.968 100.2 69.938 100.254Z" fill="#263238"/>
<path d="M72.164 112.2C70.1858 112.116 68.2727 111.469 66.65 110.334C66.65 110.334 68.03 113.448 72.206 113.28L72.164 112.2Z" fill="#EB996E"/>
<path d="M72.008 105.102C72.3145 105.027 72.6285 104.987 72.944 104.982C73.088 104.982 73.232 104.982 73.268 104.85C73.2846 104.689 73.2555 104.527 73.184 104.382C73.06 104.01 72.928 103.61 72.788 103.182C72.518 102.336 72.284 101.568 72.122 101.01C72.0158 100.711 71.9453 100.401 71.912 100.086C72.0695 100.36 72.1924 100.652 72.278 100.956C72.476 101.508 72.74 102.264 73.01 103.11L73.388 104.31C73.4744 104.498 73.4934 104.71 73.442 104.91C73.4208 104.961 73.3881 105.007 73.3465 105.043C73.3049 105.079 73.2554 105.106 73.202 105.12C73.1182 105.128 73.0338 105.128 72.95 105.12C72.6364 105.152 72.3201 105.146 72.008 105.102Z" fill="#263238"/>
<path d="M71.5819 105.6C71.3567 105.659 71.1502 105.775 70.9819 105.936C70.8784 106.023 70.8103 106.146 70.7903 106.28C70.7703 106.414 70.7998 106.551 70.8733 106.665C70.9468 106.779 71.0593 106.862 71.1897 106.899C71.3201 106.936 71.4595 106.924 71.5819 106.866C71.6918 106.842 71.7952 106.795 71.8853 106.728C71.9753 106.66 72.0499 106.575 72.1039 106.476C72.1544 106.373 72.1745 106.258 72.1617 106.144C72.149 106.031 72.1039 105.923 72.0319 105.834C71.957 105.753 71.8567 105.7 71.7477 105.684C71.6387 105.667 71.5273 105.689 71.4319 105.744" fill="#EB996E"/>
<path d="M72.326 106.428C72.326 106.512 71.852 106.644 71.342 106.35C70.832 106.056 70.694 105.57 70.778 105.552C70.862 105.534 71.078 105.852 71.498 106.08C71.918 106.308 72.314 106.338 72.326 106.428Z" fill="#263238"/>
<path d="M69.422 89.274C68.5403 89.2434 67.6626 89.4077 66.8516 89.7552C66.0406 90.1026 65.3162 90.6246 64.73 91.284C63.566 92.6308 62.9739 94.379 63.08 96.156C63.0681 96.8235 63.2793 97.476 63.68 98.01C64.28 98.7 65.294 98.838 66.212 98.928C67.1444 99.1007 68.1043 99.0514 69.014 98.784C69.902 98.442 70.64 97.524 70.442 96.6C70.004 97.2 70.37 98.088 70.994 98.466C71.6544 98.7899 72.3921 98.9229 73.124 98.85H76.268C76.6268 98.8854 76.9876 98.8078 77.3 98.628C77.4679 98.4572 77.6001 98.2545 77.6887 98.032C77.7773 97.8095 77.8206 97.5715 77.816 97.332C77.984 95.658 78.14 93.876 77.372 92.382C76.6091 91.0583 75.3646 90.0803 73.898 89.652C72.464 89.178 70.898 89.394 69.404 89.298" fill="#263238"/>
<path d="M60.554 117.054C61.7 117.654 63.872 115.29 64.58 114.204C65.2103 113.06 65.4224 111.732 65.18 110.448C65.03 109.158 64.688 107.892 64.658 106.596C64.616 104.496 65.408 102.486 65.78 100.416C66.179 98.1643 66.0828 95.8527 65.498 93.642C65.27 92.784 64.898 91.842 64.058 91.518C63.7069 91.4008 63.3311 91.3785 62.9686 91.4533C62.6062 91.5281 62.2699 91.6974 61.994 91.944C61.4507 92.445 61.0246 93.0596 60.746 93.744L60.08 98.796L60.578 105.87L60.554 117.054Z" fill="#263238"/>
<path d="M90.7579 143.694L93.8179 154.134C93.8179 154.134 77.804 159.96 69.134 159.852C61.004 159.756 58.6759 158.832 55.8199 152.268C52.9639 145.704 49.7 138.168 49.034 133.83C49.034 133.83 42.5 115.698 59.996 117.486L62.396 131.286C62.396 131.286 64.334 137.688 64.472 138.06C65.78 141.516 67.472 146.58 69.11 147.192C70.7479 147.804 90.7579 143.694 90.7579 143.694Z" fill="#FF7235"/>
<path d="M90.7579 143.694C90.6223 143.745 90.4814 143.781 90.3379 143.802L89.1379 144.06C88.0699 144.282 86.5219 144.612 84.6019 145.056C82.6819 145.5 80.4019 146.046 77.7859 146.526C74.9452 147.089 72.0538 147.357 69.158 147.324H69.056L69.0199 147.228C68.6899 146.37 68.3419 145.464 68.0119 144.54C65.7079 138.066 63.956 132.114 62.54 127.854C61.838 125.718 61.25 123.996 60.83 122.814C60.632 122.214 60.47 121.788 60.35 121.452C60.2848 121.295 60.2346 121.132 60.2 120.966C60.2 120.966 60.278 121.122 60.41 121.428C60.542 121.734 60.7219 122.184 60.9439 122.772C61.3999 123.942 62.0179 125.652 62.7439 127.782C64.2199 132.03 66.008 137.982 68.306 144.432C68.636 145.356 68.978 146.232 69.308 147.114L69.164 147.018C72.0401 147.054 74.9125 146.8 77.7379 146.262C80.3299 145.794 82.628 145.26 84.56 144.858C86.492 144.456 88.0399 144.144 89.1199 143.952L90.3559 143.754C90.4888 143.727 90.623 143.707 90.7579 143.694Z" fill="#263238"/>
<path d="M93.818 154.134C93.6691 154.22 93.5124 154.293 93.35 154.35C93.038 154.482 92.576 154.662 91.976 154.884C90.776 155.328 89.012 155.916 86.81 156.558C84.608 157.2 81.974 157.902 79.04 158.646C75.8661 159.532 72.6122 160.1 69.326 160.344C68.4576 160.385 67.5873 160.363 66.722 160.278C65.8747 160.2 65.0392 160.025 64.232 159.756C62.7203 159.209 61.3346 158.362 60.158 157.266C58.2114 155.388 56.5894 153.2 55.358 150.792C54.278 148.77 53.558 147.066 53.042 145.884C52.796 145.284 52.61 144.834 52.49 144.516C52.4175 144.362 52.3592 144.201 52.316 144.036C52.4077 144.18 52.4841 144.332 52.544 144.492C52.694 144.828 52.898 145.272 53.144 145.836C53.678 147 54.44 148.686 55.544 150.69C56.7884 153.056 58.4096 155.204 60.344 157.05C61.4979 158.106 62.8501 158.921 64.322 159.45C65.1004 159.707 65.9057 159.874 66.722 159.948C67.5732 160.033 68.4296 160.055 69.284 160.014C72.5487 159.773 75.782 159.215 78.938 158.346C81.878 157.62 84.518 156.948 86.738 156.33C88.958 155.712 90.71 155.13 91.922 154.752L93.314 154.272C93.4782 154.213 93.6467 154.167 93.818 154.134Z" fill="#263238"/>
<path opacity="0.2" d="M55.22 150.684C55.22 150.684 58.22 162.204 66.02 161.97C73.82 161.736 81.146 158.4 81.146 158.4L80.798 158.04C80.798 158.04 67.598 160.884 63.932 159.096C56.966 155.712 55.22 150.684 55.22 150.684Z" fill="black"/>
<path d="M92.732 152.934H95.186C97.412 152.718 98.654 152.682 99.278 152.094C100.112 151.296 98.966 150.522 98.966 150.522C98.966 150.522 100.574 149.964 100.424 148.986C100.322 148.314 99.56 148.242 99.56 148.242C99.56 148.242 100.982 147.684 101.264 147.09C101.642 146.286 100.664 145.854 100.664 145.854C102.602 144.654 102.428 143.454 101.978 143.358C101.528 143.262 100.022 143.958 100.022 143.958C98.744 144.324 95.258 145.386 96.548 143.466C97.838 141.546 98.108 139.584 97.814 139.002C97.7318 138.875 97.6121 138.777 97.4717 138.722C97.3312 138.667 97.177 138.656 97.0305 138.693C96.8839 138.729 96.7523 138.81 96.654 138.925C96.5557 139.039 96.4956 139.182 96.482 139.332C96.2829 140.087 95.9779 140.81 95.576 141.48C95.2726 142.031 94.8792 142.528 94.412 142.95C93.866 143.436 93.38 143.826 92.966 144.15L90.782 146.25L92.732 152.934Z" fill="#FFBE9D"/>
</svg>
