<svg width="18" height="11" viewBox="0 0 18 11" fill="none" xmlns="http://www.w3.org/2000/svg">
<path d="M17.7061 6.53715L13.707 10.5362C13.512 10.7312 13.256 10.8291 13 10.8291C12.744 10.8291 12.488 10.7312 12.293 10.5362C11.902 10.1452 11.902 9.51311 12.293 9.12211L14.5859 6.82914H1C0.447 6.82914 0 6.38114 0 5.82914C0 5.27714 0.447 4.82914 1 4.82914H14.5859L12.293 2.53617C11.902 2.14517 11.902 1.51311 12.293 1.12211C12.684 0.731107 13.316 0.731107 13.707 1.12211L17.7061 5.12113C17.7991 5.21413 17.8721 5.32406 17.9231 5.44706C18.0241 5.69106 18.0241 5.96722 17.9231 6.21122C17.8721 6.33422 17.7991 6.44415 17.7061 6.53715Z" fill="#25314C"/>
</svg>
