<svg width="20" height="20" viewBox="0 0 20 20" fill="none" xmlns="http://www.w3.org/2000/svg">
<path d="M8.74981 15C10.4074 15 11.9971 14.3415 13.1692 13.1694C14.3413 11.9973 14.9998 10.4076 14.9998 8.75C14.9998 7.09239 14.3413 5.50268 13.1692 4.33058C11.9971 3.15848 10.4074 2.5 8.74981 2.5C7.09221 2.5 5.5025 3.15848 4.3304 4.33058C3.1583 5.50268 2.49982 7.09239 2.49982 8.75C2.49982 10.4076 3.1583 11.9973 4.3304 13.1694C5.5025 14.3415 7.09221 15 8.74981 15ZM14.5573 13.4962L18.7486 17.6875L17.6873 18.7487L13.4961 14.5575C12.0062 15.7751 10.1054 16.3735 8.18678 16.229C6.26812 16.0845 4.47839 15.2082 3.18771 13.7812C1.89704 12.3542 1.20415 10.4858 1.25236 8.56229C1.30056 6.6388 2.08617 4.80742 3.4467 3.44688C4.80724 2.08635 6.63862 1.30074 8.5621 1.25254C10.4856 1.20434 12.354 1.89722 13.781 3.1879C15.208 4.47857 16.0843 6.26831 16.2288 8.18696C16.3733 10.1056 15.7749 12.0064 14.5573 13.4962Z" fill="#909090"/>
</svg>
