<svg width="118" height="80" viewBox="0 0 118 80" fill="none" xmlns="http://www.w3.org/2000/svg">
<g opacity="0.1">
<path d="M118 12.7312C118 15.9807 116.709 19.097 114.412 21.3947C112.114 23.6924 108.998 24.9833 105.748 24.9833C102.499 24.9833 99.3823 23.6924 97.0846 21.3947C94.7869 19.097 93.4961 15.9807 93.4961 12.7312C93.4961 9.48176 94.7869 6.36537 97.0846 4.06766C99.3823 1.76995 102.499 0.479126 105.748 0.479126C108.998 0.479126 112.114 1.76995 114.412 4.06766C116.709 6.36537 118 9.48176 118 12.7312Z" fill="#FF7235"/>
<path d="M85.9818 20.0906C85.9818 24.6486 84.1711 29.0199 80.9481 32.2429C77.7251 35.4659 73.3538 37.2766 68.7958 37.2766C66.539 37.2766 64.3041 36.832 62.219 35.9684C60.1339 35.1047 58.2394 33.8388 56.6436 32.2429C55.0477 30.647 53.7817 28.7525 52.9181 26.6674C52.0544 24.5823 51.6099 22.3475 51.6099 20.0906C51.6099 17.8337 52.0544 15.5989 52.9181 13.5138C53.7817 11.4287 55.0477 9.53414 56.6436 7.93827C58.2394 6.34241 60.1339 5.07652 62.219 4.21284C64.3041 3.34917 66.539 2.90462 68.7958 2.90462C73.3538 2.90462 77.7251 4.71528 80.9481 7.93827C84.1711 11.1613 85.9818 15.5326 85.9818 20.0906Z" fill="#FF7235"/>
<path d="M35.8381 37.7101C35.8381 40.8994 34.5711 43.958 32.316 46.2131C30.0609 48.4682 27.0023 49.7352 23.8131 49.7352C20.6238 49.7352 17.5652 48.4682 15.3101 46.2131C13.055 43.958 11.7881 40.8994 11.7881 37.7101C11.7881 34.5209 13.055 31.4623 15.3101 29.2072C17.5652 26.952 20.6238 25.6851 23.8131 25.6851C27.0023 25.6851 30.0609 26.952 32.316 29.2072C34.5711 31.4623 35.8381 34.5209 35.8381 37.7101Z" fill="#FF7235"/>
<path d="M53.4689 78.6283C51.1629 78.5236 48.9005 77.9558 46.811 76.9574C44.7214 75.959 42.8456 74.5496 41.2907 72.8095C39.7357 71.0694 38.5321 69.0328 37.7484 66.816C36.9648 64.5991 36.6165 62.2454 36.7235 59.8893C36.8305 57.5332 37.3906 55.2207 38.3719 53.084C39.3533 50.9473 40.7365 49.0282 42.4428 47.4362C44.1491 45.8442 46.1449 44.6105 48.3163 43.8056C50.4878 43.0007 52.7923 42.6403 55.0983 42.745C57.4044 42.8497 59.6667 43.4175 61.7563 44.4159C63.8458 45.4143 65.7216 46.8238 67.2766 48.5639C68.8315 50.3039 70.0352 52.3405 70.8188 54.5574C71.6024 56.7742 71.9507 59.1279 71.8438 61.484C71.7368 63.8402 71.1766 66.1526 70.1953 68.2893C69.214 70.426 67.8307 72.3452 66.1244 73.9372C64.4182 75.5291 62.4223 76.7628 60.2509 77.5677C58.0795 78.3726 55.7749 78.733 53.4689 78.6283Z" fill="#FF7235"/>
<path d="M24.2771 67.3388C24.2771 68.9329 23.9631 70.5114 23.3531 71.9841C22.7431 73.4568 21.849 74.7949 20.7219 75.9221C19.5947 77.0493 18.2565 77.9434 16.7838 78.5534C15.3111 79.1634 13.7326 79.4774 12.1386 79.4774C8.91922 79.4774 5.83175 78.1985 3.55533 75.9221C1.27891 73.6457 0 70.5582 0 67.3388C0 65.7448 0.314 64.1663 0.924019 62.6936C1.53404 61.2209 2.42817 59.8828 3.55533 58.7556C4.6825 57.6284 6.02061 56.7343 7.49333 56.1243C8.96605 55.5143 10.5445 55.2003 12.1386 55.2003C13.7326 55.2003 15.3111 55.5143 16.7838 56.1243C18.2565 56.7343 19.5947 57.6284 20.7219 58.7556C21.849 59.8828 22.7431 61.2209 23.3531 62.6936C23.9631 64.1663 24.2771 65.7448 24.2771 67.3388Z" fill="#FF7235"/>
</g>
</svg>
