<svg width="16" height="20" viewBox="0 0 16 20" fill="none" xmlns="http://www.w3.org/2000/svg">
<path d="M6.74167 1.85879L2.58334 3.42546C1.62501 3.78379 0.841675 4.91712 0.841675 5.93379V12.1255C0.841675 13.1088 1.49167 14.4005 2.28334 14.9921L5.86667 17.6671C7.04167 18.5505 8.97501 18.5505 10.15 17.6671L13.7333 14.9921C14.525 14.4005 15.175 13.1088 15.175 12.1255V5.93379C15.175 4.90879 14.3917 3.77546 13.4333 3.41712L9.27501 1.85879C8.56667 1.60046 7.43334 1.60046 6.74167 1.85879Z" stroke="#292D32" stroke-width="1.5" stroke-linecap="round" stroke-linejoin="round"/>
<path d="M8.00004 10.4163C8.92052 10.4163 9.66671 9.67015 9.66671 8.74967C9.66671 7.8292 8.92052 7.08301 8.00004 7.08301C7.07957 7.08301 6.33337 7.8292 6.33337 8.74967C6.33337 9.67015 7.07957 10.4163 8.00004 10.4163Z" stroke="#292D32" stroke-width="1.5" stroke-miterlimit="10" stroke-linecap="round" stroke-linejoin="round"/>
<path d="M8 10.417V12.917" stroke="#292D32" stroke-width="1.5" stroke-miterlimit="10" stroke-linecap="round" stroke-linejoin="round"/>
</svg>
