<svg width="76" height="60" viewBox="0 0 76 60" fill="none" xmlns="http://www.w3.org/2000/svg">
<path d="M55.7151 13.8076V60H5.60052V0.000244141H41.9078L48.3388 6.43138L55.7151 13.8076Z" fill="#FFFEFE"/>
<path d="M28.3198 4.01904H4.28497V14.7731H28.3198V4.01904Z" fill="#B43331"/>
<path d="M12.9062 7.5444C12.8002 7.28823 12.6588 7.05855 12.4645 6.86425C12.2701 6.66995 12.0317 6.51093 11.7578 6.40487C11.4751 6.29003 11.157 6.23706 10.8038 6.23706H8.16235V13.0568H9.4963V10.486H10.8038C11.1571 10.486 11.4751 10.4331 11.7578 10.3182C12.0317 10.2122 12.27 10.0533 12.4645 9.85886C12.6588 9.66456 12.8003 9.44366 12.9062 9.1787C13.0033 8.92253 13.0563 8.64866 13.0563 8.36601C13.0562 8.07444 13.0033 7.80058 12.9062 7.5444ZM11.4662 9.03726C11.2895 9.20507 11.0422 9.29343 10.7418 9.29343H9.4963V7.42065H10.7418C11.0422 7.42065 11.2895 7.50901 11.4662 7.68562C11.634 7.85343 11.7223 8.08312 11.7223 8.36577C11.7224 8.63976 11.634 8.86944 11.4662 9.03726Z" fill="#FFFEFE"/>
<path d="M19.2842 8.87835C19.2754 8.63987 19.2666 8.42788 19.24 8.23347C19.2136 8.03905 19.1693 7.86245 19.1075 7.69464C19.0457 7.53562 18.9661 7.37659 18.8601 7.23526C18.6216 6.89073 18.3302 6.63456 18.0032 6.47554C17.6676 6.31651 17.2701 6.23706 16.8018 6.23706H14.3461V13.0568H16.8019C17.2702 13.0568 17.6677 12.9773 18.0033 12.8183C18.3303 12.6593 18.6217 12.4031 18.8602 12.0586C18.9662 11.9173 19.0458 11.7582 19.1076 11.5992C19.1695 11.4314 19.2136 11.2547 19.2401 11.0604C19.2667 10.8661 19.2754 10.654 19.2843 10.4155C19.2931 10.1858 19.2931 9.92964 19.2931 9.64698C19.293 9.36433 19.293 9.10804 19.2842 8.87835ZM17.9502 10.336C17.9502 10.5392 17.9327 10.6983 17.9148 10.8396C17.8971 10.9721 17.8708 11.0958 17.8354 11.1841C17.8001 11.2813 17.747 11.3696 17.6853 11.4491C17.4644 11.7317 17.1287 11.8643 16.6871 11.8643H15.6713V7.42077H16.6871C17.1287 7.42077 17.4645 7.5621 17.6853 7.84476C17.7471 7.92421 17.8001 8.00378 17.8354 8.10093C17.8708 8.19808 17.8973 8.31292 17.9148 8.45425C17.9327 8.58679 17.9502 8.7546 17.9502 8.9489C17.959 9.14331 17.959 9.38179 17.959 9.64675C17.9591 9.91194 17.9591 10.1416 17.9502 10.336Z" fill="#FFFEFE"/>
<path d="M24.982 7.42077V6.23706H20.4855V13.0568H21.8195V10.2919H24.5139V9.09925H21.8195V7.42077H24.982Z" fill="#FFFEFE"/>
<path d="M12.9062 7.5444C12.8002 7.28823 12.6588 7.05855 12.4645 6.86425C12.2701 6.66995 12.0317 6.51093 11.7578 6.40487C11.4751 6.29003 11.157 6.23706 10.8038 6.23706H8.16235V13.0568H9.4963V10.486H10.8038C11.1571 10.486 11.4751 10.4331 11.7578 10.3182C12.0317 10.2122 12.27 10.0533 12.4645 9.85886C12.6588 9.66456 12.8003 9.44366 12.9062 9.1787C13.0033 8.92253 13.0563 8.64866 13.0563 8.36601C13.0562 8.07444 13.0033 7.80058 12.9062 7.5444ZM11.4662 9.03726C11.2895 9.20507 11.0422 9.29343 10.7418 9.29343H9.4963V7.42065H10.7418C11.0422 7.42065 11.2895 7.50901 11.4662 7.68562C11.634 7.85343 11.7223 8.08312 11.7223 8.36577C11.7224 8.63976 11.634 8.86944 11.4662 9.03726Z" fill="#FFFEFE"/>
<path opacity="0.08" d="M55.7151 13.8076V60H5.60052V49.1697L29.0281 25.7423L30.415 24.3553L31.1835 23.5867L32.4644 22.3059L33.9838 20.7864L48.3388 6.4314L55.7151 13.8076Z" fill="#040000"/>
<path d="M55.715 13.8089H41.9062V0L55.715 13.8089Z" fill="#BBBBBA"/>
<path d="M48.5597 43.4365C48.2681 42.9242 47.8706 42.4383 47.376 41.9966C46.9697 41.6256 46.4926 41.2811 45.9537 40.963C43.7807 39.6822 40.6799 39.0638 36.4661 39.0638H36.0421C35.8124 38.8518 35.5738 38.6398 35.3265 38.4189C33.7276 36.979 32.4555 35.4154 31.4661 33.6751C33.4094 29.3906 34.3371 25.5744 34.2223 22.3235C34.2046 21.7758 34.125 21.2635 33.9837 20.7864C33.7718 20.0179 33.4184 19.3376 32.9236 18.7811C32.9148 18.7723 32.9148 18.7723 32.906 18.7634C32.1198 17.88 31.0245 17.3765 29.9113 17.3765C28.7893 17.3765 27.7559 17.8623 27.0048 18.7546C26.2629 19.6379 25.8653 20.8483 25.8476 22.2704C25.8212 24.4436 25.9978 26.5019 26.3688 28.4011C26.4041 28.5513 26.4307 28.7015 26.466 28.8516C26.837 30.5742 27.3847 32.2084 28.0915 33.7279C27.2611 35.4151 26.4218 36.8727 25.8389 37.8621C25.3972 38.6131 24.9113 39.3993 24.4077 40.1855C22.1374 40.5919 20.2116 41.0865 18.5332 41.7049C16.2628 42.5265 14.443 43.5865 13.1357 44.8498C12.2875 45.6625 11.7134 46.5283 11.4306 47.4293C11.1302 48.3569 11.148 49.2844 11.4837 50.1148C11.7928 50.8833 12.3493 51.5282 13.0914 51.9699C13.2681 52.0759 13.4536 52.1642 13.6479 52.2437C14.2133 52.4734 14.8317 52.5971 15.4765 52.5971C16.9695 52.5971 18.5065 51.9522 19.8052 50.7949C22.2255 48.6306 24.7256 45.1501 26.2008 42.9504C27.411 42.7649 28.7272 42.6059 30.2114 42.4469C31.9607 42.2701 33.5065 42.1642 34.9111 42.1111C35.344 42.4998 35.7592 42.8708 36.1568 43.2242C38.3653 45.1941 40.0437 46.6164 41.5631 47.6146C41.5631 47.6234 41.5719 47.6234 41.5807 47.6234C42.1815 48.0209 42.7556 48.3477 43.3298 48.6128C43.9746 48.9131 44.6284 49.0722 45.2998 49.0722C46.1479 49.0722 46.9429 48.816 47.6054 48.3478C48.2768 47.862 48.7627 47.1641 48.9836 46.3779C49.24 45.4329 49.0897 44.3817 48.5597 43.4365ZM29.028 25.7422C28.9043 24.6468 28.8513 23.5072 28.869 22.3058C28.8866 21.1663 29.3019 20.3977 29.9114 20.3977C30.3707 20.3977 30.8566 20.8129 31.0775 21.6079C31.1394 21.8463 31.1836 22.1202 31.1924 22.4294C31.21 22.8004 31.2012 23.1891 31.1836 23.5866C31.1306 24.7085 30.9361 25.901 30.6005 27.182C30.3973 28.0036 30.1323 28.8605 29.8055 29.7526C29.4343 28.4984 29.1693 27.1644 29.028 25.7422ZM14.2931 48.993C14.1429 48.6219 14.3107 47.9064 15.2295 47.023C16.6339 45.6803 18.8336 44.6202 21.8991 43.8163C21.3159 44.6113 20.7418 45.3358 20.1852 45.9982C19.3371 47.0229 18.5244 47.8887 17.7912 48.5424C17.1641 49.1077 16.4749 49.4611 15.8212 49.5495C15.7064 49.5672 15.5916 49.576 15.4767 49.576C14.9026 49.5761 14.4343 49.3464 14.2931 48.993ZM28.4095 39.6026L28.4714 39.5055L28.3743 39.5231C28.3918 39.479 28.4184 39.4348 28.4448 39.3995C28.8159 38.7723 29.284 37.9684 29.7875 37.0409L29.8317 37.138L29.9466 36.8996C30.3176 37.4296 30.724 37.9508 31.148 38.4543C31.3513 38.6928 31.5633 38.9224 31.7752 39.1521L31.6339 39.1609L31.7576 39.2758C31.3955 39.3022 31.0157 39.3376 30.6357 39.3729C30.3971 39.3994 30.1498 39.4171 29.9025 39.4436C29.3902 39.4965 28.8866 39.5496 28.4095 39.6026ZM43.2771 45.1149C42.2259 44.4435 41.0509 43.4983 39.6021 42.235C41.6604 42.447 43.2771 42.8976 44.4254 43.5689C44.929 43.8605 45.3088 44.1608 45.565 44.4523C45.9891 44.9028 46.1393 45.3092 46.0596 45.583C45.9891 45.8569 45.6798 46.0424 45.2999 46.0424C45.079 46.0424 44.8494 45.9894 44.6109 45.8746C44.2045 45.6803 43.7805 45.4417 43.33 45.1503C43.3123 45.1503 43.2947 45.1326 43.2771 45.1149Z" fill="#B43331"/>
<path fill-rule="evenodd" clip-rule="evenodd" d="M66 21.6667C65.5417 21.6667 65.1667 22.0417 65.1667 22.5001V29.9351C65.1667 30.5633 65.2377 31.1895 65.3784 31.8017L65.2067 31.9734L65.0275 31.6867C64.6942 31.1534 64.3 30.6584 63.855 30.2134L63.05 29.4084C62.9729 29.3312 62.8814 29.2699 62.7805 29.2281C62.6797 29.1862 62.5717 29.1647 62.4625 29.1647C62.3534 29.1647 62.2453 29.1862 62.1445 29.2281C62.0437 29.2699 61.9521 29.3312 61.875 29.4084C61.55 29.7334 61.55 30.2667 61.875 30.5917L65.1167 33.8276C65.3511 34.0617 65.6688 34.1931 66 34.1931C66.3313 34.1931 66.649 34.0617 66.8834 33.8276L70.125 30.5917C70.45 30.2667 70.45 29.7334 70.125 29.4084C70.0479 29.3312 69.9564 29.2699 69.8555 29.2281C69.7547 29.1862 69.6467 29.1647 69.5375 29.1647C69.4284 29.1647 69.3203 29.1862 69.2195 29.2281C69.1187 29.2699 69.0271 29.3312 68.95 29.4084L68.145 30.2134C67.6998 30.6587 67.3065 31.1529 66.9725 31.6867L66.7934 31.9734L66.6217 31.8009C66.7624 31.1887 66.8334 30.5625 66.8334 29.9342V22.5001C66.8334 22.0417 66.4584 21.6667 66 21.6667ZM61 36.6667C60.779 36.6667 60.567 36.7545 60.4108 36.9108C60.2545 37.0671 60.1667 37.2791 60.1667 37.5001C60.1667 37.7211 60.2545 37.9331 60.4108 38.0893C60.567 38.2456 60.779 38.3334 61 38.3334H71C71.221 38.3334 71.433 38.2456 71.5893 38.0893C71.7456 37.9331 71.8334 37.7211 71.8334 37.5001C71.8334 37.2791 71.7456 37.0671 71.5893 36.9108C71.433 36.7545 71.221 36.6667 71 36.6667H61Z" fill="#909090"/>
</svg>
