<svg width="301" height="300" viewBox="0 0 301 300" fill="none" xmlns="http://www.w3.org/2000/svg">
<g clip-path="url(#clip0_2_1956)">
<path d="M300.5 229.44H0.5V229.59H300.5V229.44Z" fill="#E0E0E0"/>
<path d="M243.632 234H227.69V234.15H243.632V234Z" fill="#E0E0E0"/>
<path d="M267.848 237H254.108V237.15H267.848V237Z" fill="#E0E0E0"/>
<path d="M148.436 236.556H138.776V236.706H148.436V236.556Z" fill="#E0E0E0"/>
<path d="M135.32 236.556H99.266V236.706H135.32V236.556Z" fill="#E0E0E0"/>
<path d="M84.302 235.608H61.364V235.758H84.302V235.608Z" fill="#E0E0E0"/>
<path d="M217.61 233.136H165.632V233.286H217.61V233.136Z" fill="#E0E0E0"/>
<path d="M54.566 235.536H39.458V235.686H54.566V235.536Z" fill="#E0E0E0"/>
<path d="M142.7 202.68H26.846C25.9384 202.678 25.0686 202.317 24.4274 201.674C23.7862 201.032 23.426 200.162 23.426 199.254V36.396C23.4339 35.4936 23.7975 34.6308 24.4379 33.9949C25.0782 33.3591 25.9436 33.0015 26.846 33H142.7C143.609 33 144.48 33.361 145.123 34.0035C145.765 34.646 146.126 35.5174 146.126 36.426V199.254C146.126 200.163 145.765 201.034 145.123 201.677C144.48 202.319 143.609 202.68 142.7 202.68ZM26.846 33.12C25.9782 33.1216 25.1465 33.4674 24.5334 34.0816C23.9204 34.6958 23.576 35.5282 23.576 36.396V199.254C23.576 200.122 23.9204 200.954 24.5334 201.568C25.1465 202.183 25.9782 202.528 26.846 202.53H142.7C143.568 202.528 144.401 202.183 145.015 201.569C145.629 200.955 145.974 200.122 145.976 199.254V36.396C145.974 35.5276 145.629 34.6953 145.015 34.0813C144.401 33.4672 143.568 33.1216 142.7 33.12H26.846Z" fill="#E0E0E0"/>
<path d="M272.486 202.68H156.626C155.718 202.678 154.847 202.317 154.205 201.675C153.563 201.033 153.202 200.162 153.2 199.254V36.396C153.209 35.4931 153.574 34.6302 154.216 33.9946C154.857 33.3589 155.723 33.0015 156.626 33H272.486C273.387 33.0031 274.251 33.3613 274.89 33.997C275.529 34.6327 275.892 35.4947 275.9 36.396V199.254C275.9 200.161 275.541 201.03 274.901 201.672C274.261 202.314 273.392 202.677 272.486 202.68ZM156.626 33.12C155.758 33.1216 154.925 33.4672 154.311 34.0813C153.697 34.6953 153.352 35.5276 153.35 36.396V199.254C153.352 200.122 153.697 200.955 154.311 201.569C154.925 202.183 155.758 202.528 156.626 202.53H272.486C273.354 202.528 274.187 202.183 274.801 201.569C275.415 200.955 275.76 200.122 275.762 199.254V36.396C275.76 35.5276 275.415 34.6953 274.801 34.0813C274.187 33.4672 273.354 33.1216 272.486 33.12H156.626Z" fill="#E0E0E0"/>
<path d="M188.84 229.434H200.42V153.948H188.84V229.434Z" fill="#EBEBEB"/>
<path d="M193.86 207.339L195.656 206.477L180.262 174.419L178.467 175.281L193.86 207.339Z" fill="#EBEBEB"/>
<path d="M190.052 178.932C190.052 178.932 192.176 189.384 203.486 186.306C208.43 184.956 209.486 181.242 209.258 177.69C213.83 180.948 220.706 183.6 220.058 169.32C220.058 169.32 234.788 180.546 239.726 164.406C244.664 148.266 231.44 146.748 231.44 146.748C231.44 146.748 250.04 131.382 243.692 118.788C236.834 105.222 224.9 112.236 224.9 112.236C224.9 112.236 227.366 94.236 214.064 95.022C212.386 95.126 210.804 95.841 209.618 97.032C205.064 94.632 199.316 102 199.316 102C199.316 102 198.17 92.952 189.116 96.216C185.162 97.644 184.13 100.956 184.142 104.058C180.716 101.43 175.442 99.456 175.25 111.936C175.25 111.936 164.234 102.834 159.542 117.228C154.85 131.622 165.17 132.288 165.17 132.288C165.17 132.288 149.774 146.688 154.136 157.41C158.828 168.96 168.536 162.21 168.536 162.21C168.536 162.21 166.166 175.524 173.816 176.736C173.559 178.072 173.716 179.454 174.267 180.697C174.817 181.941 175.733 182.987 176.894 183.696C183.002 187.272 190.052 178.932 190.052 178.932Z" fill="#EBEBEB"/>
<path d="M259.07 155.946V229.44H44.42V155.682L136.862 143.166L259.07 155.946Z" fill="#FAFAFA"/>
<path d="M136.862 143.166L44.42 155.682V229.44H136.862V143.166Z" fill="#EBEBEB"/>
<path d="M146.57 229.44H190.658V172.902H146.57V229.44Z" fill="#E0E0E0"/>
<path d="M188.582 229.44V174.81H148.658V229.44H188.582Z" fill="#EBEBEB"/>
<path d="M168.788 229.44V174.81H168.452V229.44H168.788Z" fill="#E0E0E0"/>
<path d="M267.386 158.622L136.886 144.978L36.158 158.616L35.672 155.052L136.832 141.354L137.048 141.378L267.764 155.046L267.386 158.622Z" fill="#E0E0E0"/>
<path d="M258.08 72.906C261.56 65.388 258.8 60.03 250.28 60.03C244.946 60.03 238.328 62.142 231.89 65.568C231.158 63.612 229.112 62.442 225.812 62.442C220.01 62.442 212.012 66.042 205.736 71.172C204.218 70.032 202.022 69.336 199.196 69.222C193.64 68.994 186.914 71.076 181.07 74.46C180.374 73.808 179.449 73.4584 178.496 73.488C175.292 73.356 170.96 75.456 168.806 78.174L168.434 78.672H262.394C265.37 76.008 262.1 73.038 258.08 72.906Z" fill="#FAFAFA"/>
<path d="M125.756 52.8C125.519 52.7759 125.28 52.7639 125.042 52.764C125.264 50.304 123.992 48.732 121.268 48.732C119.306 48.732 116.894 49.554 114.44 50.94C115.142 46.14 112.892 43.062 107.798 43.062C103.682 43.062 98.48 45.084 93.338 48.372C92.888 46.5 91.376 45.372 88.832 45.372C84.362 45.372 78.032 48.84 72.914 53.736C71.81 52.644 70.16 51.936 67.988 51.858C63.728 51.642 58.442 53.658 53.756 56.88C53.5342 56.5789 53.2423 56.3363 52.9057 56.1732C52.5691 56.0102 52.1978 55.9315 51.824 55.944C49.496 55.824 46.286 57.618 44.426 60.012H129.5C131.498 56.4 129.908 53.22 125.756 52.8Z" fill="#FAFAFA"/>
<path d="M39.5 229.44H30.374C30.374 229.44 24.752 224.442 22.922 217.74C22.082 214.656 26.228 212.52 28.736 214.74C34.616 219.894 39.5 229.44 39.5 229.44Z" fill="#FAFAFA"/>
<path d="M43.352 229.44H34.22C34.22 229.44 28.994 218.712 31.016 210.9C31.1694 210.283 31.4884 209.719 31.9387 209.27C32.3889 208.821 32.9531 208.504 33.5706 208.352C34.1881 208.2 34.8354 208.219 35.4425 208.408C36.0497 208.597 36.5938 208.949 37.016 209.424C43.904 217.026 43.352 229.44 43.352 229.44Z" fill="#FAFAFA"/>
<path d="M43.364 229.44H49.262C49.262 229.44 52.958 222.918 56.462 214.908C59.702 207.432 54.182 204.312 50.714 211.656C46.274 220.998 43.364 229.44 43.364 229.44Z" fill="#FAFAFA"/>
<path d="M44.978 229.44H54.11C54.11 229.44 63.308 225.09 62.792 216.84C62.66 214.686 60.194 213.282 57.992 214.122C48.212 217.89 44.978 229.44 44.978 229.44Z" fill="#FAFAFA"/>
<path d="M39.8481 229.44H48.9861C48.9861 229.44 51.7461 214.2 48.5001 204.6C47.5221 201.732 44.0481 201.228 42.4461 203.724C36.4641 213 39.8481 229.44 39.8481 229.44Z" fill="#FAFAFA"/>
<path d="M114.662 163.632H66.62V212.898H114.662V163.632Z" fill="#E0E0E0"/>
<path d="M112.406 210.366V166.17H68.876V210.366H112.406Z" fill="#FAFAFA"/>
<path d="M113.726 186.564H67.55V189.966H113.726V186.564Z" fill="#E0E0E0"/>
<path d="M92.342 212.01V164.532H88.9401V212.01H92.342Z" fill="#E0E0E0"/>
<path d="M259.07 212.898H204.59V164.526H259.07" fill="#E0E0E0"/>
<path d="M259.07 210.414V167.022H206.804V210.414H259.07Z" fill="#FAFAFA"/>
<path d="M175.111 161.581C175.962 157.996 173.745 154.4 170.16 153.549C166.574 152.698 162.978 154.915 162.127 158.5C161.277 162.085 163.493 165.682 167.078 166.532C170.664 167.383 174.26 165.166 175.111 161.581Z" fill="white"/>
<path d="M199.394 227.736H104.096V229.446H199.394V227.736Z" fill="#E0E0E0"/>
<path d="M150.5 256.536C214.749 256.536 266.834 253.495 266.834 249.744C266.834 245.993 214.749 242.952 150.5 242.952C86.2505 242.952 34.166 245.993 34.166 249.744C34.166 253.495 86.2505 256.536 150.5 256.536Z" fill="#F5F5F5"/>
<path d="M95.6601 103.8C95.5581 105.51 95.3601 107.082 95.1381 108.708C94.9161 110.334 94.6101 111.924 94.2681 113.508C93.6 116.755 92.6318 119.932 91.3761 123L90.8601 124.152L90.7281 124.44L90.6621 124.584C90.6621 124.632 90.6261 124.668 90.5781 124.77C90.3945 125.135 90.1668 125.475 89.9001 125.784C89.268 126.51 88.3895 126.976 87.4341 127.092C86.7223 127.169 86.0022 127.094 85.3221 126.87C84.3682 126.546 83.4682 126.081 82.6521 125.49C81.9451 124.984 81.2679 124.437 80.6241 123.852C78.2303 121.618 76.0784 119.139 74.2041 116.454L76.1961 114.768C77.3061 115.812 78.4701 116.868 79.6281 117.876C80.7861 118.884 81.9801 119.844 83.1741 120.702C83.7526 121.119 84.3535 121.503 84.9741 121.854C85.4662 122.149 85.9974 122.373 86.5521 122.52C86.7381 122.556 86.8581 122.52 86.7741 122.52C86.6093 122.537 86.4551 122.609 86.3361 122.724C86.2941 122.76 86.2881 122.766 86.2941 122.724L86.4741 122.25L86.8641 121.218C87.8443 118.371 88.6104 115.455 89.1561 112.494C89.4561 111.006 89.6661 109.494 89.8941 107.982C90.1221 106.47 90.2781 104.922 90.4101 103.488L95.6601 103.8Z" fill="#EEC1BB"/>
<path d="M92.078 97.536C89.954 98.076 88.478 106.806 88.478 106.806L94.322 110.784C94.322 110.784 99.92 102 98.3 99.642C96.68 97.284 95.168 96.75 92.078 97.536Z" fill="#FF7235"/>
<path opacity="0.3" d="M92.078 97.536C89.954 98.076 88.478 106.806 88.478 106.806L94.322 110.784C94.322 110.784 99.92 102 98.3 99.642C96.68 97.284 95.168 96.75 92.078 97.536Z" fill="black"/>
<path d="M92.2641 99.486L90.6381 108.288L93.9201 110.514L92.2641 99.486Z" fill="#FF7235"/>
<path opacity="0.5" d="M92.2641 99.486L90.6381 108.288L93.9201 110.514L92.2641 99.486Z" fill="black"/>
<path d="M76.256 114.426L73.472 110.034L71.9 115.026C71.9 115.026 74.18 117.426 76.244 116.826L76.256 114.426Z" fill="#EEC1BB"/>
<path d="M69.398 108.582L68.3 112.83L71.894 115.026L73.4721 110.034L69.398 108.582Z" fill="#EEC1BB"/>
<path d="M103.556 244.488H98.4081L98.0601 232.566H103.208L103.556 244.488Z" fill="#EEC1BB"/>
<path d="M148.976 220.578L145.052 223.908L136.076 215.892L140 212.562L148.976 220.578Z" fill="#EEC1BB"/>
<path d="M143.978 223.512L147.782 219.156C147.845 219.079 147.935 219.028 148.034 219.014C148.133 219 148.233 219.022 148.316 219.078L152.198 221.592C152.29 221.658 152.367 221.743 152.425 221.841C152.483 221.939 152.519 222.048 152.533 222.16C152.546 222.273 152.536 222.388 152.504 222.496C152.471 222.605 152.416 222.706 152.342 222.792C150.992 224.286 150.266 224.94 148.592 226.854C147.56 228.054 146.192 229.854 144.758 231.486C143.324 233.118 141.65 231.798 142.1 230.994C144.098 227.394 143.618 226.116 143.648 224.34C143.662 224.035 143.778 223.743 143.978 223.512Z" fill="#263238"/>
<path d="M98.2281 243.888H104.012C104.112 243.887 104.209 243.922 104.286 243.987C104.362 244.052 104.412 244.143 104.426 244.242L105.08 248.82C105.094 248.935 105.083 249.053 105.047 249.163C105.012 249.274 104.954 249.376 104.876 249.462C104.798 249.549 104.703 249.617 104.596 249.664C104.49 249.71 104.374 249.734 104.258 249.732C102.242 249.696 101.258 249.582 98.7261 249.582C97.1601 249.582 93.9261 249.744 91.7661 249.744C89.6061 249.744 89.4861 247.608 90.3861 247.41C94.4241 246.546 96.0081 245.346 97.3701 244.206C97.6106 244.004 97.9139 243.891 98.2281 243.888Z" fill="#263238"/>
<path d="M98.0601 232.572L98.2401 238.716H103.388L103.214 232.572H98.0601Z" fill="#DB9792"/>
<path d="M140 212.562L136.076 215.898L140.708 220.026L144.632 216.69L140 212.562Z" fill="#DB9792"/>
<path d="M95.768 74.298C99.242 69.132 107.57 67.416 112.754 72.048C119.354 77.946 115.352 89.508 125.498 86.448C135.644 83.388 145.148 84.12 145.202 89.37C145.256 94.62 151.454 87.954 158.75 93.342C173.522 104.244 162.224 132.282 149.234 121.572C140.714 114.552 137.732 111.54 133.484 116.892C129.236 122.244 114.11 119.718 112.754 112.968C111.398 106.218 101.75 109.5 96.5 103.602C91.25 97.704 88.358 85.308 95.768 74.298Z" fill="#263238"/>
<path d="M92.0781 97.536C92.0781 97.536 89.6241 98.4 94.5381 128.604H115.442C115.088 120.096 115.082 114.852 119.15 97.404C116.222 96.8031 113.254 96.414 110.27 96.24C107.11 96.0118 103.938 96.0118 100.778 96.24C96.6981 96.6 92.0781 97.536 92.0781 97.536Z" fill="#FF7235"/>
<path opacity="0.3" d="M92.0781 97.536C92.0781 97.536 89.6241 98.4 94.5381 128.604H115.442C115.088 120.096 115.082 114.852 119.15 97.404C116.222 96.8031 113.254 96.414 110.27 96.24C107.11 96.0118 103.938 96.0118 100.778 96.24C96.6981 96.6 92.0781 97.536 92.0781 97.536Z" fill="black"/>
<path d="M109.328 85.53C108.728 88.584 108.128 94.182 110.27 96.222C110.27 96.222 109.436 99.318 103.76 99.318C97.52 99.318 100.76 96.222 100.76 96.222C104.162 95.406 104.078 92.88 103.484 90.504L109.328 85.53Z" fill="#EEC1BB"/>
<path d="M106.952 87.558L103.502 90.504C103.652 91.0557 103.751 91.6201 103.796 92.19C105.098 91.998 106.886 90.57 107.024 89.19C107.098 88.6461 107.074 88.0933 106.952 87.558Z" fill="#DB9792"/>
<path d="M112.55 79.926C111.35 84.894 110.954 87.024 107.96 89.148C103.46 92.352 97.6221 89.79 97.3101 84.57C97.0281 79.866 99.0381 72.534 104.306 71.406C105.467 71.1514 106.673 71.1979 107.81 71.541C108.948 71.8841 109.979 72.5124 110.805 73.3662C111.631 74.2201 112.225 75.271 112.531 76.4192C112.836 77.5673 112.843 78.7745 112.55 79.926Z" fill="#EEC1BB"/>
<path d="M94.5381 128.604C94.5381 128.604 90.4761 168.258 90.8121 183.954C91.1661 200.286 97.1481 237.522 97.1481 237.522H104.108C104.108 237.522 103.004 201.24 103.622 185.202C104.294 167.724 109.844 128.604 109.844 128.604H94.5381Z" fill="#FF7235"/>
<path opacity="0.5" d="M94.5381 128.604C94.5381 128.604 90.4761 168.258 90.8121 183.954C91.1661 200.286 97.1481 237.522 97.1481 237.522H104.108C104.108 237.522 103.004 201.24 103.622 185.202C104.294 167.724 109.844 128.604 109.844 128.604H94.5381Z" fill="black"/>
<path d="M104.708 237.774H96.542L95.942 235.17L105.092 234.852L104.708 237.774Z" fill="#FF7235"/>
<path opacity="0.3" d="M104.708 237.774H96.542L95.942 235.17L105.092 234.852L104.708 237.774Z" fill="white"/>
<path d="M103.55 138.474C98.4201 148.8 102.524 167.646 104.336 174.654C105.272 164.13 106.838 151.254 108.062 141.804C107.3 136.458 105.92 133.71 103.55 138.474Z" fill="#FF7235"/>
<path opacity="0.6" d="M103.55 138.474C98.4201 148.8 102.524 167.646 104.336 174.654C105.272 164.13 106.838 151.254 108.062 141.804C107.3 136.458 105.92 133.71 103.55 138.474Z" fill="black"/>
<path d="M100.058 128.604C100.058 128.604 104.792 169.83 108.368 183.066C112.616 198.78 138.968 219.924 138.968 219.924L144.314 215.382C144.314 215.382 125.198 192.408 121.952 184.134C115.022 166.464 120.956 140.136 115.418 128.604H100.058Z" fill="#FF7235"/>
<path opacity="0.5" d="M100.058 128.604C100.058 128.604 104.792 169.83 108.368 183.066C112.616 198.78 138.968 219.924 138.968 219.924L144.314 215.382C144.314 215.382 125.198 192.408 121.952 184.134C115.022 166.464 120.956 140.136 115.418 128.604H100.058Z" fill="black"/>
<path d="M145.196 215.136L138.554 220.776L136.076 219.288L143.582 212.304L145.196 215.136Z" fill="#FF7235"/>
<path opacity="0.3" d="M145.196 215.136L138.554 220.776L136.076 219.288L143.582 212.304L145.196 215.136Z" fill="white"/>
<path d="M104.678 79.9706C104.751 79.5627 104.592 79.1937 104.325 79.1463C104.057 79.0989 103.782 79.3912 103.709 79.7991C103.637 80.2069 103.796 80.576 104.063 80.6233C104.331 80.6707 104.606 80.3785 104.678 79.9706Z" fill="#263238"/>
<path d="M100.064 79.164C99.992 79.572 99.716 79.866 99.464 79.818C99.212 79.77 99.038 79.398 99.11 78.99C99.182 78.582 99.458 78.288 99.71 78.336C99.962 78.384 100.136 78.756 100.064 79.164Z" fill="#263238"/>
<path d="M99.824 78.378L98.894 77.922C98.894 77.922 99.26 78.78 99.824 78.378Z" fill="#263238"/>
<path d="M101.162 80.082C100.632 80.9498 99.9862 81.7411 99.2421 82.434C99.425 82.6186 99.6458 82.7614 99.8892 82.8525C100.133 82.9437 100.393 82.981 100.652 82.962L101.162 80.082Z" fill="#D4827D"/>
<path d="M102.5 84.894C102.266 84.8946 102.033 84.8725 101.804 84.828C101.773 84.8222 101.746 84.8044 101.728 84.7786C101.71 84.7528 101.703 84.721 101.708 84.69C101.714 84.6587 101.731 84.6308 101.757 84.6119C101.783 84.593 101.814 84.5844 101.846 84.588C102.353 84.6885 102.877 84.6687 103.375 84.5301C103.873 84.3915 104.332 84.138 104.714 83.79C104.736 83.768 104.767 83.7557 104.798 83.7557C104.829 83.7557 104.86 83.768 104.882 83.79C104.894 83.8012 104.903 83.8147 104.91 83.8297C104.916 83.8446 104.919 83.8607 104.919 83.877C104.919 83.8933 104.916 83.9094 104.91 83.9243C104.903 83.9393 104.894 83.9528 104.882 83.964C104.24 84.5731 103.385 84.9068 102.5 84.894Z" fill="#263238"/>
<path d="M104.51 70.986C102.212 72.306 107.882 84.786 112.028 83.034C116.174 81.282 114.83 74.316 112.778 72.564C110.726 70.812 107.696 69.162 104.51 70.986Z" fill="#263238"/>
<path d="M103.22 70.398C103.22 70.398 100.454 70.8 98.606 74.25C96.758 77.7 107.378 70.878 105.878 70.398C105.015 70.1103 104.083 70.1103 103.22 70.398Z" fill="#263238"/>
<path d="M112.76 83.67C112.573 84.1221 112.297 84.5325 111.95 84.8775C111.603 85.2225 111.191 85.4952 110.738 85.68C109.538 86.172 108.776 85.122 108.992 83.88C109.19 82.782 110.054 81.204 111.332 81.234C111.613 81.2444 111.888 81.3256 112.129 81.47C112.371 81.6144 112.572 81.8175 112.714 82.0603C112.857 82.3031 112.935 82.5779 112.943 82.8593C112.951 83.1406 112.888 83.4195 112.76 83.67Z" fill="#EEC1BB"/>
<path d="M105.95 77.292C105.885 77.2914 105.823 77.2656 105.776 77.22C105.573 76.9904 105.317 76.8128 105.031 76.7022C104.745 76.5915 104.437 76.551 104.132 76.584C104.068 76.5945 104.003 76.5796 103.951 76.5426C103.898 76.5056 103.862 76.4494 103.85 76.386C103.844 76.3549 103.844 76.3228 103.85 76.2917C103.857 76.2607 103.869 76.2312 103.887 76.2049C103.905 76.1787 103.928 76.1563 103.955 76.139C103.981 76.1216 104.011 76.1097 104.042 76.104C104.427 76.0554 104.818 76.101 105.182 76.2369C105.546 76.3728 105.871 76.5948 106.13 76.884C106.174 76.9299 106.199 76.9912 106.199 77.055C106.199 77.1188 106.174 77.1801 106.13 77.226C106.107 77.2494 106.078 77.2674 106.047 77.2788C106.016 77.2902 105.983 77.2947 105.95 77.292Z" fill="#263238"/>
<path d="M98.384 76.668C98.3526 76.6679 98.3215 76.6615 98.2927 76.6491C98.2638 76.6367 98.2377 76.6187 98.216 76.596C98.1716 76.5501 98.1469 76.4888 98.1469 76.425C98.1469 76.3612 98.1716 76.2999 98.216 76.254C98.4756 75.9659 98.8012 75.745 99.1648 75.6102C99.5284 75.4754 99.9193 75.4307 100.304 75.48C100.361 75.4982 100.41 75.5366 100.441 75.5882C100.472 75.6397 100.483 75.7008 100.471 75.7598C100.46 75.8189 100.428 75.8718 100.381 75.9087C100.333 75.9456 100.274 75.9638 100.214 75.96C99.9097 75.9278 99.6021 75.968 99.3163 76.0775C99.0306 76.187 98.7748 76.3627 98.57 76.59C98.5458 76.6148 98.5169 76.6345 98.4849 76.6479C98.453 76.6613 98.4187 76.6682 98.384 76.668Z" fill="#263238"/>
<path d="M121.406 102.888C122.533 105.633 123.508 108.437 124.328 111.288C125.191 114.176 125.827 117.127 126.23 120.114C126.308 120.888 126.398 121.65 126.422 122.454V123.054C126.45 123.456 126.419 123.86 126.332 124.254C126.25 124.584 126.119 124.9 125.942 125.19C125.737 125.522 125.47 125.811 125.156 126.042C124.678 126.385 124.116 126.592 123.53 126.642C123.174 126.676 122.815 126.666 122.462 126.612C122.195 126.576 121.93 126.521 121.67 126.45C121.233 126.329 120.804 126.18 120.386 126.006C119.651 125.694 118.936 125.337 118.244 124.938C115.669 123.424 113.237 121.679 110.978 119.724L112.454 117.57C114.98 118.848 117.548 120.18 120.062 121.206C120.662 121.464 121.316 121.686 121.892 121.86C122.15 121.938 122.412 122 122.678 122.046C122.77 122.054 122.862 122.054 122.954 122.046C123.014 122.046 123.044 122.046 122.954 122.046C122.735 122.069 122.526 122.154 122.354 122.292C122.061 122.515 121.85 122.83 121.754 123.186C121.694 123.384 121.718 123.552 121.694 123.288L121.64 122.802C121.586 122.16 121.466 121.5 121.358 120.84C121.118 119.508 120.83 118.17 120.464 116.832C120.098 115.494 119.732 114.15 119.318 112.812C118.46 110.154 117.518 107.442 116.534 104.874L121.406 102.888Z" fill="#EEC1BB"/>
<path d="M119.15 97.386C121.244 98.028 123.758 105.24 123.758 105.24L115.634 111.048C115.634 111.048 112.67 105.048 113.546 102.318C114.464 99.498 116.756 96.66 119.15 97.386Z" fill="#FF7235"/>
<path opacity="0.3" d="M119.15 97.386C121.244 98.028 123.758 105.24 123.758 105.24L115.634 111.048C115.634 111.048 112.67 105.048 113.546 102.318C114.464 99.498 116.756 96.66 119.15 97.386Z" fill="black"/>
<path d="M142.574 225.996C142.468 225.993 142.364 225.966 142.269 225.917C142.175 225.868 142.092 225.799 142.028 225.714C141.977 225.661 141.941 225.595 141.924 225.523C141.907 225.451 141.91 225.376 141.932 225.306C142.118 224.676 143.906 224.166 144.11 224.106C144.133 224.101 144.157 224.102 144.179 224.109C144.201 224.116 144.221 224.13 144.236 224.148C144.249 224.168 144.256 224.191 144.256 224.214C144.256 224.237 144.249 224.26 144.236 224.28C143.912 224.88 143.282 225.918 142.628 225.99L142.574 225.996ZM143.894 224.43C143.186 224.652 142.262 225.03 142.166 225.378C142.154 225.409 142.152 225.444 142.16 225.476C142.169 225.508 142.188 225.537 142.214 225.558C142.26 225.622 142.322 225.674 142.393 225.707C142.464 225.741 142.543 225.756 142.622 225.75C142.97 225.708 143.438 225.222 143.9 224.43H143.894Z" fill="#FF7235"/>
<path d="M143.33 224.448C142.798 224.501 142.265 224.353 141.836 224.034C141.776 223.958 141.744 223.864 141.744 223.767C141.744 223.67 141.776 223.576 141.836 223.5C141.886 223.42 141.953 223.353 142.033 223.304C142.114 223.255 142.204 223.226 142.298 223.218C143.036 223.116 144.158 224.094 144.206 224.136C144.222 224.15 144.234 224.168 144.241 224.188C144.248 224.208 144.251 224.229 144.248 224.25C144.243 224.271 144.232 224.29 144.218 224.306C144.203 224.322 144.185 224.333 144.164 224.34C143.893 224.417 143.612 224.453 143.33 224.448ZM142.424 223.452H142.346C142.287 223.459 142.23 223.479 142.179 223.51C142.129 223.541 142.085 223.583 142.052 223.632C141.968 223.758 141.998 223.83 142.052 223.878C142.268 224.166 143.282 224.274 143.9 224.16C143.481 223.795 142.971 223.55 142.424 223.452Z" fill="#FF7235"/>
<path d="M96.2961 244.8C95.8568 244.84 95.417 244.73 95.0481 244.488C94.9658 244.413 94.9027 244.319 94.864 244.215C94.8254 244.111 94.8124 243.998 94.8261 243.888C94.8299 243.82 94.8513 243.755 94.8882 243.698C94.925 243.641 94.976 243.595 95.0361 243.564C95.6661 243.216 97.7181 244.266 97.9521 244.386C97.9746 244.397 97.9927 244.416 98.0036 244.439C98.0145 244.462 98.0174 244.487 98.0121 244.512C98.0088 244.537 97.9977 244.56 97.9805 244.578C97.9633 244.597 97.9407 244.609 97.9161 244.614C97.3828 244.725 96.8406 244.787 96.2961 244.8ZM95.3781 243.738C95.2999 243.735 95.2219 243.749 95.1501 243.78C95.1272 243.794 95.1081 243.813 95.0945 243.836C95.0808 243.859 95.0732 243.885 95.0721 243.912C95.06 243.983 95.0664 244.057 95.0906 244.125C95.1147 244.193 95.1558 244.254 95.2101 244.302C95.5221 244.584 96.3681 244.632 97.5141 244.446C96.8486 244.085 96.1261 243.842 95.3781 243.726V243.738Z" fill="#FF7235"/>
<path d="M97.892 244.608C97.8766 244.614 97.8595 244.614 97.844 244.608C97.244 244.332 96.014 243.222 96.11 242.64C96.11 242.502 96.23 242.328 96.566 242.298C96.6875 242.283 96.8108 242.293 96.9278 242.33C97.0447 242.366 97.1526 242.427 97.244 242.508C97.892 243.042 98.012 244.428 98.012 244.488C98.0154 244.509 98.0127 244.53 98.0041 244.549C97.9956 244.568 97.9817 244.585 97.964 244.596C97.942 244.608 97.9167 244.612 97.892 244.608ZM96.692 242.52H96.62C96.392 242.52 96.38 242.634 96.374 242.658C96.32 243.012 97.142 243.858 97.766 244.266C97.7196 243.681 97.4909 243.125 97.112 242.676C97.0524 242.621 96.9823 242.579 96.906 242.553C96.8297 242.526 96.7487 242.515 96.668 242.52H96.692Z" fill="#FF7235"/>
<path d="M115.754 127.38L116.288 129.252C116.36 129.396 116.192 129.546 115.946 129.546H94.43C94.244 129.546 94.088 129.45 94.076 129.336L93.884 127.464C93.884 127.332 94.034 127.224 94.244 127.224H115.412C115.478 127.218 115.544 127.229 115.604 127.256C115.664 127.284 115.716 127.326 115.754 127.38Z" fill="#FF7235"/>
<path opacity="0.6" d="M115.754 127.38L116.288 129.252C116.36 129.396 116.192 129.546 115.946 129.546H94.43C94.244 129.546 94.088 129.45 94.076 129.336L93.884 127.464C93.884 127.332 94.034 127.224 94.244 127.224H115.412C115.478 127.218 115.544 127.229 115.604 127.256C115.664 127.284 115.716 127.326 115.754 127.38Z" fill="white"/>
<path d="M112.91 129.744H113.51C113.618 129.744 113.708 129.69 113.702 129.618L113.432 127.188C113.432 127.116 113.324 127.056 113.216 127.056H112.646C112.532 127.056 112.448 127.116 112.454 127.188L112.7 129.6C112.7 129.69 112.796 129.744 112.91 129.744Z" fill="#FF7235"/>
<path opacity="0.5" d="M112.91 129.744H113.51C113.618 129.744 113.708 129.69 113.702 129.618L113.432 127.188C113.432 127.116 113.324 127.056 113.216 127.056H112.646C112.532 127.056 112.448 127.116 112.454 127.188L112.7 129.6C112.7 129.69 112.796 129.744 112.91 129.744Z" fill="black"/>
<path d="M96.026 129.744H96.59C96.704 129.744 96.794 129.69 96.782 129.618L96.5 127.2C96.5 127.128 96.392 127.068 96.278 127.068H95.714C95.6 127.068 95.516 127.128 95.522 127.2L95.786 129.63C95.816 129.69 95.9 129.744 96.026 129.744Z" fill="#FF7235"/>
<path opacity="0.5" d="M96.026 129.744H96.59C96.704 129.744 96.794 129.69 96.782 129.618L96.5 127.2C96.5 127.128 96.392 127.068 96.278 127.068H95.714C95.6 127.068 95.516 127.128 95.522 127.2L95.786 129.63C95.816 129.69 95.9 129.744 96.026 129.744Z" fill="black"/>
<path d="M104.468 129.744H105.038C105.146 129.744 105.236 129.69 105.224 129.618L104.96 127.2C104.96 127.128 104.852 127.068 104.738 127.068H104.174C104.06 127.068 103.976 127.128 103.982 127.2L104.246 129.63C104.258 129.69 104.354 129.744 104.468 129.744Z" fill="#FF7235"/>
<path opacity="0.5" d="M104.468 129.744H105.038C105.146 129.744 105.236 129.69 105.224 129.618L104.96 127.2C104.96 127.128 104.852 127.068 104.738 127.068H104.174C104.06 127.068 103.976 127.128 103.982 127.2L104.246 129.63C104.258 129.69 104.354 129.744 104.468 129.744Z" fill="black"/>
<path d="M113.162 118.122L111.434 112.836L108.674 117.288C108.674 117.288 110.3 120.168 112.436 120.126L113.162 118.122Z" fill="#EEC1BB"/>
<path d="M109.598 106.8L108.242 124.344C108.205 124.801 107.989 125.225 107.64 125.523C107.292 125.821 106.839 125.969 106.382 125.934L72.986 123.36C72.5284 123.323 72.1039 123.107 71.805 122.759C71.5061 122.41 71.3569 121.958 71.39 121.5L72.746 103.956C72.7666 103.722 72.8348 103.495 72.9462 103.289C73.0576 103.083 73.21 102.901 73.394 102.756C73.7337 102.486 74.1611 102.352 74.594 102.378L107.99 104.958C108.448 104.993 108.874 105.209 109.173 105.558C109.472 105.906 109.621 106.36 109.586 106.818L109.598 106.8Z" fill="#FF7235"/>
<path opacity="0.8" d="M109.598 106.8L108.242 124.344C108.205 124.801 107.989 125.225 107.64 125.523C107.292 125.821 106.839 125.969 106.382 125.934L72.986 123.36C72.5284 123.323 72.1039 123.107 71.805 122.759C71.5061 122.41 71.3569 121.958 71.39 121.5L72.746 103.956C72.7666 103.722 72.8348 103.495 72.9462 103.289C73.0576 103.083 73.21 102.901 73.394 102.756C73.7337 102.486 74.1611 102.352 74.594 102.378L107.99 104.958C108.448 104.993 108.874 105.209 109.173 105.558C109.472 105.906 109.621 106.36 109.586 106.818L109.598 106.8Z" fill="white"/>
<path d="M109.142 105.468L94.838 115.254C93.5142 116.162 91.9204 116.593 90.3192 116.474C88.718 116.355 87.2052 115.694 86.03 114.6L73.394 102.738C73.7337 102.468 74.1611 102.334 74.594 102.36L107.99 104.94C108.426 104.967 108.837 105.155 109.142 105.468Z" fill="#FF7235"/>
<path opacity="0.6" d="M109.142 105.468L94.838 115.254C93.5142 116.162 91.9204 116.593 90.3192 116.474C88.718 116.355 87.2052 115.694 86.03 114.6L73.394 102.738C73.7337 102.468 74.1611 102.334 74.594 102.36L107.99 104.94C108.426 104.967 108.837 105.155 109.142 105.468Z" fill="white"/>
<path d="M107.84 110.43L105.734 114.276L109.142 117.99L111.434 112.836L107.84 110.43Z" fill="#EEC1BB"/>
<path d="M104.45 79.2L103.514 78.744C103.514 78.744 103.886 79.596 104.45 79.2Z" fill="#263238"/>
<path d="M200.474 150H193.118V249.744H200.474V150Z" fill="#FF7235"/>
<path opacity="0.6" d="M200.474 150H193.118V249.744H200.474V150Z" fill="white"/>
<path d="M193.118 150H200.474V157.356L193.118 154.65V150Z" fill="#FF7235"/>
<path opacity="0.4" d="M193.118 150H200.474V157.356L193.118 154.65V150Z" fill="white"/>
<path d="M185.18 126.072C185.223 123.733 184.8 121.409 183.935 119.236C183.07 117.063 181.78 115.084 180.141 113.415C178.503 111.745 176.548 110.419 174.391 109.514C172.234 108.609 169.918 108.143 167.579 108.143C165.24 108.143 162.924 108.609 160.767 109.514C158.61 110.419 156.655 111.745 155.017 113.415C153.378 115.084 152.089 117.063 151.223 119.236C150.358 121.409 149.935 123.733 149.978 126.072V150H185.18V126.072Z" fill="#FF7235"/>
<path opacity="0.3" d="M185.18 126.072C185.223 123.733 184.8 121.409 183.935 119.236C183.07 117.063 181.78 115.084 180.141 113.415C178.503 111.745 176.548 110.419 174.391 109.514C172.234 108.609 169.918 108.143 167.579 108.143C165.24 108.143 162.924 108.609 160.767 109.514C158.61 110.419 156.655 111.745 155.017 113.415C153.378 115.084 152.089 117.063 151.223 119.236C150.358 121.409 149.935 123.733 149.978 126.072V150H185.18V126.072Z" fill="black"/>
<path d="M146.642 160.266C144.29 169.986 150.242 177.864 159.986 177.864C169.73 177.864 179.492 169.986 181.844 160.266L184.292 150.144C184.326 150.008 184.328 149.865 184.298 149.728C184.269 149.591 184.209 149.462 184.122 149.351C184.035 149.241 183.924 149.152 183.798 149.09C183.671 149.029 183.533 148.998 183.392 148.998H150.098C149.89 148.999 149.688 149.07 149.525 149.199C149.361 149.329 149.246 149.509 149.198 149.712L146.642 160.266Z" fill="#FF7235"/>
<path opacity="0.4" d="M146.642 160.266C144.29 169.986 150.242 177.864 159.986 177.864C169.73 177.864 179.492 169.986 181.844 160.266L184.292 150.144C184.326 150.008 184.328 149.865 184.298 149.728C184.269 149.591 184.209 149.462 184.122 149.351C184.035 149.241 183.924 149.152 183.798 149.09C183.671 149.029 183.533 148.998 183.392 148.998H150.098C149.89 148.999 149.688 149.07 149.525 149.199C149.361 149.329 149.246 149.509 149.198 149.712L146.642 160.266Z" fill="white"/>
<path d="M145.226 160.266C142.874 169.986 148.826 177.864 158.57 177.864C168.314 177.864 178.076 169.986 180.428 160.266L182.9 150.144C182.934 150.008 182.936 149.865 182.906 149.728C182.877 149.591 182.817 149.462 182.73 149.351C182.643 149.241 182.532 149.152 182.406 149.09C182.279 149.029 182.141 148.998 182 148.998H148.7C148.492 148.999 148.29 149.07 148.127 149.199C147.963 149.329 147.848 149.509 147.8 149.712L145.226 160.266Z" fill="#FF7235"/>
<path opacity="0.5" d="M145.226 160.266C142.874 169.986 148.826 177.864 158.57 177.864C168.314 177.864 178.076 169.986 180.428 160.266L182.9 150.144C182.934 150.008 182.936 149.865 182.906 149.728C182.877 149.591 182.817 149.462 182.73 149.351C182.643 149.241 182.532 149.152 182.406 149.09C182.279 149.029 182.141 148.998 182 148.998H148.7C148.492 148.999 148.29 149.07 148.127 149.199C147.963 149.329 147.848 149.509 147.8 149.712L145.226 160.266Z" fill="white"/>
<path d="M226.604 126.066V150H185.204V126.066C185.202 121.399 183.348 116.924 180.048 113.624C176.748 110.324 172.273 108.47 167.606 108.468H209.036C213.703 108.47 218.178 110.324 221.478 113.624C224.778 116.924 226.632 121.399 226.634 126.066H226.604Z" fill="#FF7235"/>
<path opacity="0.5" d="M226.604 126.066V150H185.204V126.066C185.202 121.399 183.348 116.924 180.048 113.624C176.748 110.324 172.273 108.47 167.606 108.468H209.036C213.703 108.47 218.178 110.324 221.478 113.624C224.778 116.924 226.632 121.399 226.634 126.066H226.604Z" fill="white"/>
<path d="M226.604 126.066V132.468H185.204V126.066C185.212 122.152 183.906 118.349 181.496 115.266H222.926C225.326 118.353 226.621 122.156 226.604 126.066Z" fill="#FF7235"/>
<path opacity="0.7" d="M226.604 126.066V132.468H185.204V126.066C185.212 122.152 183.906 118.349 181.496 115.266H222.926C225.326 118.353 226.621 122.156 226.604 126.066Z" fill="white"/>
<path d="M190.946 135.552V100.152C190.945 99.8364 191.013 99.5244 191.145 99.2378C191.278 98.9512 191.471 98.6968 191.711 98.4923C191.951 98.2879 192.234 98.1383 192.538 98.054C192.842 97.9696 193.161 97.9526 193.472 98.004L201.956 99.408C202.26 99.458 202.537 99.6146 202.736 99.85C202.935 100.085 203.043 100.384 203.042 100.692V102.888C203.042 103.233 202.905 103.564 202.661 103.809C202.417 104.053 202.085 104.19 201.74 104.19H193.646V135.54C193.646 135.898 193.504 136.241 193.251 136.495C192.997 136.748 192.654 136.89 192.296 136.89C191.94 136.89 191.599 136.749 191.346 136.499C191.093 136.248 190.949 135.908 190.946 135.552Z" fill="#FF7235"/>
<path opacity="0.3" d="M190.946 135.552V100.152C190.945 99.8364 191.013 99.5244 191.145 99.2378C191.278 98.9512 191.471 98.6968 191.711 98.4923C191.951 98.2879 192.234 98.1383 192.538 98.054C192.842 97.9696 193.161 97.9526 193.472 98.004L201.956 99.408C202.26 99.458 202.537 99.6146 202.736 99.85C202.935 100.085 203.043 100.384 203.042 100.692V102.888C203.042 103.233 202.905 103.564 202.661 103.809C202.417 104.053 202.085 104.19 201.74 104.19H193.646V135.54C193.646 135.898 193.504 136.241 193.251 136.495C192.997 136.748 192.654 136.89 192.296 136.89C191.94 136.89 191.599 136.749 191.346 136.499C191.093 136.248 190.949 135.908 190.946 135.552Z" fill="black"/>
<path d="M167.576 113.142V130.734C167.575 131.192 167.392 131.632 167.069 131.956C166.745 132.281 166.306 132.465 165.848 132.468H132.35C131.892 132.465 131.453 132.281 131.13 131.956C130.806 131.632 130.624 131.192 130.622 130.734V113.142C130.624 112.684 130.806 112.244 131.13 111.92C131.453 111.595 131.892 111.411 132.35 111.408H165.848C166.306 111.411 166.745 111.595 167.069 111.92C167.392 112.244 167.575 112.684 167.576 113.142Z" fill="#FF7235"/>
<path opacity="0.8" d="M167.576 113.142V130.734C167.575 131.192 167.392 131.632 167.069 131.956C166.745 132.281 166.306 132.465 165.848 132.468H132.35C131.892 132.465 131.453 132.281 131.13 131.956C130.806 131.632 130.624 131.192 130.622 130.734V113.142C130.624 112.684 130.806 112.244 131.13 111.92C131.453 111.595 131.892 111.411 132.35 111.408H165.848C166.306 111.411 166.745 111.595 167.069 111.92C167.392 112.244 167.575 112.684 167.576 113.142Z" fill="white"/>
<path d="M167.024 111.876L153.5 122.73C152.246 123.734 150.688 124.282 149.081 124.282C147.474 124.282 145.916 123.734 144.662 122.73L131.156 111.876C131.481 111.572 131.911 111.404 132.356 111.408H165.854C166.289 111.412 166.707 111.579 167.024 111.876Z" fill="#FF7235"/>
<path opacity="0.6" d="M167.024 111.876L153.5 122.73C152.246 123.734 150.688 124.282 149.081 124.282C147.474 124.282 145.916 123.734 144.662 122.73L131.156 111.876C131.481 111.572 131.911 111.404 132.356 111.408H165.854C166.289 111.412 166.707 111.579 167.024 111.876Z" fill="white"/>
<path d="M141.908 139.56V157.158C141.908 157.617 141.726 158.057 141.402 158.382C141.078 158.707 140.639 158.89 140.18 158.892H106.7C106.242 158.889 105.803 158.705 105.48 158.38C105.156 158.056 104.974 157.616 104.972 157.158V139.56C104.972 139.102 105.154 138.662 105.478 138.338C105.802 138.014 106.242 137.832 106.7 137.832H140.18C140.638 137.832 141.078 138.014 141.402 138.338C141.726 138.662 141.908 139.102 141.908 139.56Z" fill="#FF7235"/>
<path opacity="0.8" d="M141.908 139.56V157.158C141.908 157.617 141.726 158.057 141.402 158.382C141.078 158.707 140.639 158.89 140.18 158.892H106.7C106.242 158.889 105.803 158.705 105.48 158.38C105.156 158.056 104.974 157.616 104.972 157.158V139.56C104.972 139.102 105.154 138.662 105.478 138.338C105.802 138.014 106.242 137.832 106.7 137.832H140.18C140.638 137.832 141.078 138.014 141.402 138.338C141.726 138.662 141.908 139.102 141.908 139.56Z" fill="white"/>
<path d="M141.356 138.294L127.85 149.148C126.598 150.156 125.038 150.705 123.431 150.705C121.824 150.705 120.264 150.156 119.012 149.148L105.5 138.294C105.826 137.991 106.255 137.826 106.7 137.832H140.18C140.617 137.83 141.037 137.996 141.356 138.294Z" fill="#FF7235"/>
<path opacity="0.6" d="M141.356 138.294L127.85 149.148C126.598 150.156 125.038 150.705 123.431 150.705C121.824 150.705 120.264 150.156 119.012 149.148L105.5 138.294C105.826 137.991 106.255 137.826 106.7 137.832H140.18C140.617 137.83 141.037 137.996 141.356 138.294Z" fill="white"/>
<path d="M185.18 126.372V147.432H172.664C172.205 147.43 171.765 147.247 171.44 146.922C171.115 146.598 170.932 146.157 170.93 145.698V128.106C170.933 127.647 171.117 127.208 171.441 126.883C171.766 126.559 172.205 126.375 172.664 126.372H185.18Z" fill="#FF7235"/>
<path opacity="0.8" d="M185.18 126.372V147.432H172.664C172.205 147.43 171.765 147.247 171.44 146.922C171.115 146.598 170.932 146.157 170.93 145.698V128.106C170.933 127.647 171.117 127.208 171.441 126.883C171.766 126.559 172.205 126.375 172.664 126.372H185.18Z" fill="white"/>
<path d="M185.18 126.372V137.832C185.116 137.789 185.053 137.743 184.994 137.694L171.5 126.84C171.824 126.534 172.254 126.366 172.7 126.372H185.18Z" fill="#FF7235"/>
<path opacity="0.6" d="M185.18 126.372V137.832C185.116 137.789 185.053 137.743 184.994 137.694L171.5 126.84C171.824 126.534 172.254 126.366 172.7 126.372H185.18Z" fill="white"/>
<path opacity="0.5" d="M185.174 126.372H182.432V147.432H185.174V126.372Z" fill="#FF7235"/>
</g>
<defs>
<clipPath id="clip0_2_1956">
<rect width="300" height="300" fill="white" transform="translate(0.5)"/>
</clipPath>
</defs>
</svg>
