<svg width="16" height="17" viewBox="0 0 16 17" fill="none" xmlns="http://www.w3.org/2000/svg">
<path d="M8.01331 4.49992C7.27731 4.49992 6.67664 3.90259 6.67664 3.16659C6.67664 2.43059 7.26997 1.83325 8.00663 1.83325H8.01331C8.74931 1.83325 9.34664 2.43059 9.34664 3.16659C9.34664 3.90259 8.74997 4.49992 8.01331 4.49992ZM9.34664 8.49992C9.34664 7.76392 8.74931 7.16658 8.01331 7.16658H8.00663C7.27063 7.16658 6.67664 7.76392 6.67664 8.49992C6.67664 9.23592 7.27664 9.83325 8.01331 9.83325C8.74997 9.83325 9.34664 9.23592 9.34664 8.49992ZM9.34664 13.8333C9.34664 13.0973 8.74931 12.4999 8.01331 12.4999H8.00663C7.27063 12.4999 6.67664 13.0973 6.67664 13.8333C6.67664 14.5693 7.27664 15.1666 8.01331 15.1666C8.74997 15.1666 9.34664 14.5693 9.34664 13.8333Z" fill="black"/>
</svg>
