<svg width="25" height="24" viewBox="0 0 25 24" fill="none" xmlns="http://www.w3.org/2000/svg">
<path d="M8.5 5.5V4.5C8.5 3.5 9 3 10 3H15C16 3 16.5 3.5 16.5 4.5V5.5C16.5 6.5 16 7 15 7H10C9 7 8.5 6.5 8.5 5.5ZM20.5 8V18C20.5 20 19.5 21 17.5 21H7.5C5.5 21 4.5 20 4.5 18V8C4.5 6.258 5.25189 5.27701 6.76489 5.05701C6.88589 5.03901 7 5.13899 7 5.26099V5.49902C7 7.31902 8.18 8.49902 10 8.49902H15C16.82 8.49902 18 7.31902 18 5.49902V5.26099C18 5.13899 18.1151 5.03901 18.2351 5.05701C19.7481 5.27701 20.5 6.258 20.5 8ZM14.25 16C14.25 15.586 13.914 15.25 13.5 15.25H9.5C9.086 15.25 8.75 15.586 8.75 16C8.75 16.414 9.086 16.75 9.5 16.75H13.5C13.914 16.75 14.25 16.414 14.25 16ZM16.25 12C16.25 11.586 15.914 11.25 15.5 11.25H9.5C9.086 11.25 8.75 11.586 8.75 12C8.75 12.414 9.086 12.75 9.5 12.75H15.5C15.914 12.75 16.25 12.414 16.25 12Z" fill="#C3C3C3"/>
</svg>
