<svg width="27" height="26" viewBox="0 0 27 26" fill="none" xmlns="http://www.w3.org/2000/svg">
<path d="M13.5011 3.25C8.11696 3.25 3.75218 7.61478 3.75218 12.9989C3.75218 14.4506 4.07726 15.8372 4.65143 17.0712C4.87893 17.5478 4.87899 18.1003 4.71649 18.6095L3.8064 21.3178C3.52473 22.1628 4.33725 22.9753 5.18225 22.6937L7.89059 21.7836C8.39975 21.6211 8.95217 21.6212 9.42884 21.8487C10.6638 22.4229 12.0505 22.7478 13.5022 22.7478C18.8863 22.7478 23.2511 18.3831 23.2511 12.9989C23.25 7.61478 18.8853 3.25 13.5011 3.25ZM9.16885 14.0833C8.57085 14.0833 8.08022 13.598 8.08022 13C8.08022 12.402 8.56 11.9167 9.158 11.9167H9.16885C9.76793 11.9167 10.2522 12.402 10.2522 13C10.2522 13.598 9.76793 14.0833 9.16885 14.0833ZM13.5022 14.0833C12.9042 14.0833 12.4136 13.598 12.4136 13C12.4136 12.402 12.8933 11.9167 13.4913 11.9167H13.5022C14.1013 11.9167 14.5855 12.402 14.5855 13C14.5855 13.598 14.1013 14.0833 13.5022 14.0833ZM17.8355 14.0833C17.2375 14.0833 16.7469 13.598 16.7469 13C16.7469 12.402 17.2267 11.9167 17.8247 11.9167H17.8355C18.4346 11.9167 18.9188 12.402 18.9188 13C18.9188 13.598 18.4346 14.0833 17.8355 14.0833Z" fill="#C3C3C3"/>
<circle cx="21.3929" cy="4.64287" r="3.71429" fill="#FF3B30"/>
</svg>
