<svg width="29" height="28" viewBox="0 0 29 28" fill="none" xmlns="http://www.w3.org/2000/svg">
<path fill-rule="evenodd" clip-rule="evenodd" d="M3.3689 9.46245C2.7744 10.7025 2.98309 12.1529 3.40047 15.0537L3.70712 17.1847C4.24327 20.911 4.51135 22.774 5.80393 23.887C7.0965 25 8.9921 25 12.7833 25H15.2167C19.0079 25 20.9035 25 22.1961 23.887C23.4886 22.774 23.7567 20.911 24.2929 17.1847L24.5995 15.0537C25.0169 12.1529 25.2256 10.7025 24.6311 9.46245C24.0366 8.22236 22.7712 7.46857 20.2404 5.96099L18.717 5.05356C16.4189 3.68452 15.2697 3 14 3C12.7303 3 11.5811 3.68452 9.28292 5.05356L7.7596 5.96099C5.22881 7.46857 3.96341 8.22236 3.3689 9.46245ZM14 21.425C13.5444 21.425 13.175 21.0556 13.175 20.6V17.3C13.175 16.8444 13.5444 16.475 14 16.475C14.4556 16.475 14.825 16.8444 14.825 17.3V20.6C14.825 21.0556 14.4556 21.425 14 21.425Z" fill="#FF7235"/>
</svg>
