<svg width="29" height="28" viewBox="0 0 29 28" fill="none" xmlns="http://www.w3.org/2000/svg">
<path d="M18.9566 12.5184C18.7816 12.4017 18.77 12.1568 18.91 12.0051C19.7967 10.9668 20.345 9.63671 20.345 8.16671C20.345 7.73504 20.2983 7.31509 20.205 6.90676C20.205 6.90676 20.1817 6.81344 20.1817 6.77844C20.1817 6.59178 20.3287 6.43649 20.5153 6.42483C20.527 6.42483 20.6716 6.41671 20.73 6.41671C22.9116 6.41671 24.615 8.55175 23.845 10.8384C23.5067 11.8534 22.6433 12.6466 21.6166 12.915C20.625 13.1716 19.6916 12.985 18.9566 12.5184ZM22.2817 14.1984C22.0601 14.1984 21.92 14.35 21.92 14.5483C21.92 14.63 21.9853 14.735 22.0483 14.805C23.4366 16.24 24.09 18.2467 24.09 20.2417V21.28C24.09 21.4434 24.23 21.5834 24.405 21.5834H26.1667C26.4933 21.5834 26.75 21.3267 26.75 21V18.6784C26.75 16.6134 25.5834 14.1984 22.2817 14.1984ZM7.38336 12.915C8.37503 13.1716 9.3084 12.985 10.0434 12.5184C10.2184 12.4017 10.23 12.1568 10.09 12.0051C9.2033 10.9668 8.65499 9.63671 8.65499 8.16671C8.65499 7.73504 8.70165 7.31509 8.79498 6.90676C8.79498 6.90676 8.81834 6.81344 8.81834 6.77844C8.81834 6.59178 8.67133 6.43649 8.48466 6.42483C8.47299 6.42483 8.32837 6.41671 8.27004 6.41671C6.08837 6.41671 4.38499 8.55175 5.15499 10.8384C5.49332 11.8534 6.3567 12.6466 7.38336 12.915ZM7.08002 14.5483C7.08002 14.35 6.93995 14.1984 6.71828 14.1984C3.41662 14.1984 2.25 16.6134 2.25 18.6784V21C2.25 21.3267 2.50667 21.5834 2.83333 21.5834H4.59501C4.77001 21.5834 4.91003 21.4434 4.91003 21.28V20.2417C4.91003 18.2467 5.56337 16.24 6.9517 14.805C7.0147 14.735 7.08002 14.63 7.08002 14.5483ZM14.5094 12.25C16.7611 12.25 18.5927 10.4184 18.5927 8.16671C18.5927 5.91504 16.7611 4.08337 14.5094 4.08337C12.2577 4.08337 10.4261 5.91504 10.4261 8.16671C10.4261 10.4184 12.2577 12.25 14.5094 12.25ZM16.5731 14.4539H12.4257C8.16739 14.4539 6.65647 17.5712 6.65647 20.2417V23.3334C6.65647 23.6554 6.91781 23.9167 7.23981 23.9167H21.7591C22.0811 23.9167 22.3424 23.6554 22.3424 23.3334V20.2417C22.3436 17.5712 20.8326 14.4539 16.5731 14.4539Z" fill="#C3C3C3"/>
</svg>
